<?xml version="1.0" encoding="UTF-8"?>
<!-- Generator: visioncortex VTracer -->
<svg id="svg" version="1.1" xmlns="http://www.w3.org/2000/svg" style="display: block;" viewBox="0 0 749 174"><path d="M0 0 C8.00041593 5.76708427 13.37773841 12.4871746 15.3125 22.3125 C15.77538996 27.97449758 15.70595764 33.64929001 15.3125 39.3125 C14.3125 40.3125 14.3125 40.3125 12.25608826 40.43275452 C11.35229935 40.43053391 10.44851044 40.42831329 9.51733398 40.42602539 C8.49635117 40.42594986 7.47536835 40.42587433 6.42344666 40.42579651 C5.3130452 40.42063522 4.20264374 40.41547394 3.05859375 40.41015625 C1.92801041 40.4087413 0.79742706 40.40732635 -0.36741638 40.40586853 C-3.99497065 40.40025019 -7.62246424 40.38769458 -11.25 40.375 C-13.70247307 40.36998736 -16.1549471 40.36542405 -18.60742188 40.36132812 C-24.63413545 40.3502748 -30.66081339 40.33351884 -36.6875 40.3125 C-34.31285266 45.2770994 -32.76928197 48.20413982 -27.4609375 50.11328125 C-19.14289658 51.88797728 -12.37279394 51.20495277 -5.0625 46.6875 C-3.94875 45.90375 -2.835 45.12 -1.6875 44.3125 C2.2725 47.6125 6.2325 50.9125 10.3125 54.3125 C9.23901524 59.6799238 9.1223295 60.03010802 4.9375 62.875 C-6.1086062 70.01056649 -17.7021837 72.47631505 -30.68798828 69.91845703 C-35.16962276 68.79890784 -39.55201695 67.38024153 -43.6875 65.3125 C-43.6875 64.6525 -43.6875 63.9925 -43.6875 63.3125 C-44.244375 63.085625 -44.80125 62.85875 -45.375 62.625 C-52.78095523 58.42162 -57.11302432 50.87167268 -59.5 42.9375 C-62.06519437 32.29560794 -61.05736971 21.7189727 -55.5 12.125 C-49.29948703 3.14621564 -42.17147176 -1.92404862 -31.8046875 -5.30078125 C-20.72862152 -7.32390031 -9.58608284 -5.91276034 0 0 Z M-34.5625 17.625 C-37.22241592 20.54448538 -37.22241592 20.54448538 -37.6875 26.3125 C-22.3425 25.8175 -22.3425 25.8175 -6.6875 25.3125 C-7.72452875 19.09032748 -8.03323794 18.03590965 -12.6875 14.3125 C-20.86280451 10.65970437 -27.62916717 12.04818881 -34.5625 17.625 Z " transform="translate(291.6875,54.6875)" style="fill: #434345;"/><path d="M0 0 C3.43705705 -0.14505175 6.87333033 -0.23398014 10.3125 -0.3125 C11.28896484 -0.35439453 12.26542969 -0.39628906 13.27148438 -0.43945312 C14.20927734 -0.45556641 15.14707031 -0.47167969 16.11328125 -0.48828125 C17.40939331 -0.52755737 17.40939331 -0.52755737 18.73168945 -0.56762695 C21 0 21 0 22.6159668 2.07788086 C24.20125074 5.42490212 25.66276178 8.80232313 27.03125 12.2421875 C27.30843872 12.92878448 27.58562744 13.61538147 27.87121582 14.32278442 C28.75144092 16.5052854 29.62591666 18.69003297 30.5 20.875 C31.37528065 23.05232707 32.25175179 25.22917022 33.12878418 27.40579224 C33.67213964 28.75543556 34.21429465 30.10556306 34.75500488 31.45626831 C36.01299568 34.59168132 37.31012738 37.69845046 38.68945312 40.78173828 C40 44 40 44 40 47 C40.66 47 41.32 47 42 47 C42.11698242 46.13971191 42.23396484 45.27942383 42.35449219 44.39306641 C43.01246227 40.93449297 44.02800157 37.97904244 45.328125 34.7109375 C45.79863281 33.52113281 46.26914062 32.33132812 46.75390625 31.10546875 C47.25255004 29.86195746 47.75124816 28.61846795 48.25 27.375 C48.96736328 25.56322266 48.96736328 25.56322266 49.69921875 23.71484375 C58.53812779 1.46187221 58.53812779 1.46187221 60 0 C61.41570123 -0.08651611 62.835595 -0.10704904 64.25390625 -0.09765625 C65.53491211 -0.09282227 65.53491211 -0.09282227 66.84179688 -0.08789062 C68.18854492 -0.07532227 68.18854492 -0.07532227 69.5625 -0.0625 C70.46419922 -0.05798828 71.36589844 -0.05347656 72.29492188 -0.04882812 C74.53001314 -0.03700225 76.76497437 -0.0205222 79 0 C80.41364285 3.76618945 79.5547893 5.91169216 78.078125 9.56640625 C77.4138147 11.23364746 77.4138147 11.23364746 76.73608398 12.93457031 C76.24567627 14.13178711 75.75526855 15.32900391 75.25 16.5625 C74.74395776 17.81961892 74.23884471 19.07711225 73.73461914 20.33496094 C72.42555575 23.59232753 71.10292194 26.84399828 69.77642822 30.09429932 C68.56653528 33.06391549 67.36797065 36.03809463 66.16796875 39.01171875 C63.9144794 44.58385933 61.6363861 50.14555121 59.34960938 55.70410156 C57.98581733 59.03463568 56.64020668 62.37210513 55.296875 65.7109375 C54.42746316 67.84911282 53.55768675 69.98713994 52.6875 72.125 C52.30327881 73.09018555 51.91905762 74.05537109 51.52319336 75.04980469 C47.63310526 84.53309572 43.08954968 92.7423193 34 98 C25.83327039 101.38996323 15.29002599 101.09515042 7 98 C4.45361929 96.49852967 2.30949243 94.8672492 0 93 C0.71971619 89.24654344 2.33112202 86.13908031 4.0625 82.75 C4.61035156 81.67234375 5.15820312 80.5946875 5.72265625 79.484375 C6.14417969 78.66453125 6.56570313 77.8446875 7 77 C12.6953125 77.859375 12.6953125 77.859375 15.4375 79.125 C18.9617023 80.32838615 21.41360912 79.8633904 25 79 C27.04451019 77.95625978 27.04451019 77.95625978 28 76 C28.3299045 71.51899501 27.65866803 68.50311037 25.8046875 64.4375 C25.33844971 63.39924072 24.87221191 62.36098145 24.3918457 61.29125977 C23.89128662 60.20514404 23.39072754 59.11902832 22.875 58 C21.86554318 55.75926873 20.85642648 53.5183842 19.84765625 51.27734375 C19.35797363 50.19952637 18.86829102 49.12170898 18.36376953 48.01123047 C16.64255827 44.2107615 14.96288577 40.39416487 13.3125 36.5625 C12.85488281 35.51191406 12.39726562 34.46132812 11.92578125 33.37890625 C11 31 11 31 11 29 C10.34 28.67 9.68 28.34 9 28 C8.33401493 26.03709663 7.67937106 24.06994473 7.06640625 22.08984375 C5.38310143 17.21257593 3.30956348 12.49440369 1.24926758 7.765625 C0.4425475 5.86695702 -0.28556351 3.93528237 -1 2 C-0.67 1.34 -0.34 0.68 0 0 Z " transform="translate(309,50)" style="fill: #9AA662;"/><path d="M0 0 C7.6930623 5.52218052 12.48754137 12.35090208 14.84375 21.57421875 C15.34628874 24.88420948 15.41986328 28.09005071 15.4375 31.4375 C15.45167969 32.66855469 15.46585938 33.89960937 15.48046875 35.16796875 C15.25 38.25 15.25 38.25 13.25 40.25 C11.11129761 40.5284729 11.11129761 40.5284729 8.43310547 40.56884766 C7.43221893 40.58871735 6.4313324 40.60858704 5.40011597 40.62905884 C3.77506638 40.64638565 3.77506638 40.64638565 2.1171875 40.6640625 C0.45672897 40.69311172 0.45672897 40.69311172 -1.23727417 40.7227478 C-4.78310369 40.78266754 -8.32896545 40.82897873 -11.875 40.875 C-14.27475397 40.91316835 -16.67449408 40.95221939 -19.07421875 40.9921875 C-24.96602302 41.08837916 -30.85791036 41.17339015 -36.75 41.25 C-33.33966572 47.20936482 -33.33966572 47.20936482 -27.5 50.4375 C-20.21653851 52.01558332 -14.51026789 51.18295669 -7.75 48.25 C-6.986875 47.6725 -6.22375 47.095 -5.4375 46.5 C-3.75 45.25 -3.75 45.25 -1.90234375 45.4609375 C0.72529513 46.42424613 2.2995057 47.75468764 4.375 49.625 C5.05820312 50.23085937 5.74140625 50.83671875 6.4453125 51.4609375 C8.25 53.25 8.25 53.25 10.25 56.25 C4.21114357 64.354781 -2.98360078 67.89366241 -12.75 70.25 C-25.54929022 71.45389363 -37.84524118 69.98504292 -48.265625 61.6796875 C-56.84260666 53.4186999 -60.33185575 43.60842663 -60.84375 31.84765625 C-60.59352264 22.24518149 -58.51644658 14.20850729 -51.75 7.25 C-51.07710937 6.55003906 -50.40421875 5.85007812 -49.7109375 5.12890625 C-44.58345938 0.19167025 -39.54275625 -2.67345793 -32.75 -4.75 C-32.12996094 -4.94207031 -31.50992188 -5.13414063 -30.87109375 -5.33203125 C-20.0359353 -7.46713614 -9.3179979 -5.79855443 0 0 Z M-34.125 17.0625 C-36.06035498 19.66778556 -36.90017893 22.1339894 -37.75 25.25 C-34.9564163 26.18119457 -33.25073518 26.37858975 -30.36328125 26.3828125 C-29.50669922 26.38410156 -28.65011719 26.38539062 -27.76757812 26.38671875 C-26.87490234 26.38285156 -25.98222656 26.37898438 -25.0625 26.375 C-24.18916016 26.37886719 -23.31582031 26.38273437 -22.41601562 26.38671875 C-17.10330408 26.37878341 -12.00681357 26.02108092 -6.75 25.25 C-7.00252616 21.63045831 -7.56609493 19.51972744 -9.625 16.5 C-17.61964932 10.74385249 -26.46557703 11.21715089 -34.125 17.0625 Z " transform="translate(717.75,54.75)" style="fill: #9AA665;"/><path d="M0 0 C8.68610783 6.56646036 13.39678655 15.14399814 15.03515625 25.80078125 C16.01941368 37.1575977 13.32350032 46.74202042 6.2890625 55.73046875 C-2.79991137 64.98174572 -12.54801288 68.8686589 -25.4609375 69.10546875 C-36.94828 69.0695417 -46.3855741 65.84809756 -54.7109375 57.73046875 C-62.35645815 49.44409549 -65.24238382 42.00674347 -65.1484375 30.79296875 C-65.16841797 29.95056641 -65.18839844 29.10816406 -65.20898438 28.24023438 C-65.20157288 18.61270283 -61.12642153 10.77887049 -54.7109375 3.73046875 C-40.01800649 -10.84349116 -16.85135493 -10.83301388 0 0 Z M-38.9609375 18.10546875 C-42.82295779 23.89849919 -43.38781538 28.86499313 -42.7109375 35.73046875 C-41.01728701 41.47006207 -38.63103935 44.35392826 -33.7109375 47.73046875 C-28.65628135 50.20163398 -24.0765117 50.05018808 -18.7109375 48.73046875 C-13.39383969 46.02175854 -10.18708243 42.42083107 -7.9609375 36.85546875 C-7.18685425 30.2757611 -7.34370688 24.56700183 -10.7109375 18.73046875 C-13.9568992 15.14749463 -17.28940531 12.92814485 -22.19921875 12.52734375 C-29.21809128 12.41084794 -33.90902715 12.77289671 -38.9609375 18.10546875 Z " transform="translate(580.7109375,56.26953125)" style="fill: #98A562;"/><path d="M0 0 C5.24184197 4.48315432 9.65849363 10.3531761 10.32536316 17.38397217 C10.32393814 18.31139221 10.32251312 19.23881226 10.32104492 20.19433594 C10.32565987 21.7805777 10.32565987 21.7805777 10.33036804 23.39886475 C10.31958977 25.09441498 10.31958977 25.09441498 10.30859375 26.82421875 C10.30813553 27.99116272 10.30767731 29.15810669 10.3072052 30.3604126 C10.3041885 32.82150289 10.29631966 35.28259136 10.28393555 37.74365234 C10.26562625 41.52708631 10.26342629 45.31027626 10.26367188 49.09375 C10.25875857 51.48307505 10.25293108 53.87239843 10.24609375 56.26171875 C10.24498093 57.4001825 10.2438681 58.53864624 10.24272156 59.71160889 C10.23634171 60.75649475 10.22996185 61.80138062 10.22338867 62.87792969 C10.21957687 63.80216736 10.21576508 64.72640503 10.21183777 65.6786499 C10.078125 67.77734375 10.078125 67.77734375 9.078125 68.77734375 C7.66242377 68.86385986 6.24253 68.88439279 4.82421875 68.875 C3.97021484 68.87177734 3.11621094 68.86855469 2.23632812 68.86523438 C1.33849609 68.85685547 0.44066406 68.84847656 -0.484375 68.83984375 C-1.38607422 68.83533203 -2.28777344 68.83082031 -3.21679688 68.82617188 C-5.45188814 68.814346 -7.68684937 68.79786595 -9.921875 68.77734375 C-10.251875 67.12734375 -10.581875 65.47734375 -10.921875 63.77734375 C-11.66953125 64.12667969 -12.4171875 64.47601563 -13.1875 64.8359375 C-14.17234375 65.29097656 -15.1571875 65.74601562 -16.171875 66.21484375 C-17.14640625 66.66730469 -18.1209375 67.11976562 -19.125 67.5859375 C-27.46422183 71.13825965 -37.56313222 71.08066507 -45.9921875 67.74609375 C-51.20527907 65.12899515 -54.84548393 61.56719857 -57.22265625 56.28125 C-58.93066806 50.16485018 -59.21853203 43.23155305 -56.96875 37.23828125 C-53.37968988 31.17322396 -48.35618257 27.53490414 -41.921875 24.77734375 C-37.92921771 23.96384586 -34.1552785 23.65780932 -30.0859375 23.6796875 C-29.02246094 23.68291016 -27.95898438 23.68613281 -26.86328125 23.68945312 C-25.22166016 23.70202148 -25.22166016 23.70202148 -23.546875 23.71484375 C-22.42925781 23.71935547 -21.31164062 23.72386719 -20.16015625 23.72851562 C-17.41400696 23.74025131 -14.66796914 23.75667012 -11.921875 23.77734375 C-12.49842683 22.47002847 -13.09310847 21.17069887 -13.6953125 19.875 C-14.02450684 19.15062744 -14.35370117 18.42625488 -14.69287109 17.67993164 C-15.93218472 15.37414024 -15.93218472 15.37414024 -19.546875 14.21484375 C-27.20476049 13.02361712 -34.43028927 14.69213667 -41.6953125 17.05859375 C-43.75706594 17.72414223 -45.8147527 18.27702247 -47.921875 18.77734375 C-50.97975242 14.26333422 -54.28707284 8.2404267 -53.6953125 2.62890625 C-52.51204795 -0.20375736 -50.30172642 -1.05707159 -47.609375 -2.2734375 C-32.51539415 -7.60459643 -13.62338768 -9.74119853 0 0 Z M-34.921875 39.77734375 C-36.54277354 42.50340039 -36.93470786 44.23836353 -36.859375 47.40234375 C-36.07203656 49.91000526 -36.07203656 49.91000526 -33.921875 51.58984375 C-29.2377146 53.44399057 -24.67481811 53.80969741 -19.890625 52.015625 C-16.47500615 50.18479541 -13.62662907 48.28713154 -11.921875 44.77734375 C-11.87927558 42.44439932 -11.87581352 40.1102224 -11.921875 37.77734375 C-14.81796093 37.7232113 -17.71302695 37.68360734 -20.609375 37.65234375 C-21.42599609 37.63558594 -22.24261719 37.61882812 -23.08398438 37.6015625 C-27.4360953 37.56632274 -31.02947635 37.56937492 -34.921875 39.77734375 Z " transform="translate(144.921875,55.22265625)" style="fill: #444445;"/><path d="M0 0 C1.06367294 0.00222061 2.12734589 0.00444122 3.22325134 0.00672913 C5.02500572 0.00684242 5.02500572 0.00684242 6.86315918 0.00695801 C8.17042465 0.01211929 9.47769012 0.01728058 10.8245697 0.02259827 C12.16835477 0.02446253 13.51214052 0.02588639 14.85592651 0.02688599 C18.39873622 0.0307105 21.94150515 0.0405402 25.48429871 0.05158997 C29.09706572 0.06180552 32.7098393 0.06638392 36.32261658 0.07142639 C43.41573225 0.08216254 50.50882019 0.09923816 57.60191345 0.12025452 C59.83360672 4.58364104 59.23433497 10.29085385 58.60191345 15.12025452 C56.99704071 18.00325944 55.03278127 19.93180011 52.60191345 22.12025452 C52.27191345 22.78025452 51.94191345 23.44025452 51.60191345 24.12025452 C50.94191345 24.12025452 50.28191345 24.12025452 49.60191345 24.12025452 C49.35570251 24.67584045 49.10949158 25.23142639 48.8558197 25.80384827 C47.36186939 28.5637004 45.55132937 30.77342311 43.53941345 33.18275452 C42.34251892 34.62328186 42.34251892 34.62328186 41.1214447 36.09291077 C39.87427673 37.59144592 39.87427673 37.59144592 38.60191345 39.12025452 C36.24775176 42.01398859 33.89704147 44.91049094 31.54722595 47.80775452 C29.96881826 49.68409459 28.37218222 51.42792211 26.60191345 53.12025452 C26.93191345 53.78025452 27.26191345 54.44025452 27.60191345 55.12025452 C28.53575867 55.1150177 29.46960388 55.10978088 30.43174744 55.10438538 C33.88504142 55.08737832 37.33829113 55.0748215 40.79161072 55.06532288 C42.28836264 55.06028331 43.78510961 55.05345164 45.28184509 55.04481506 C47.42891152 55.03273293 49.57591307 55.0270226 51.7230072 55.02259827 C53.66324768 55.01474304 53.66324768 55.01474304 55.64268494 55.00672913 C58.60191345 55.12025452 58.60191345 55.12025452 59.60191345 56.12025452 C59.7017832 58.963605 59.74069226 61.77722615 59.72691345 64.62025452 C59.73078064 65.4181842 59.73464783 66.21611389 59.7386322 67.03822327 C59.72852113 72.99364684 59.72852113 72.99364684 58.60191345 74.12025452 C56.67429528 74.21946315 54.74301991 74.24824816 52.81285095 74.24964905 C51.57486755 74.25280121 50.33688416 74.25595337 49.06138611 74.25920105 C47.69989486 74.25741127 46.33840394 74.25536031 44.97691345 74.25306702 C43.59068281 74.25374011 42.20445228 74.25471018 40.81822205 74.25596619 C37.90951924 74.25744292 35.00084708 74.25528941 32.09214783 74.25062561 C28.35594747 74.24492832 24.61981894 74.24820746 20.88362122 74.25419807 C18.0201208 74.25780437 15.15663752 74.25666479 12.2931366 74.25407028 C10.91516613 74.2534012 9.53719413 74.25422878 8.15922546 74.25654984 C6.23647591 74.25907743 4.31372093 74.25454475 2.39097595 74.24964905 C0.74669617 74.24845566 0.74669617 74.24845566 -0.93080139 74.24723816 C-3.39808655 74.12025452 -3.39808655 74.12025452 -4.39808655 73.12025452 C-5.18185494 67.31067233 -5.71914463 61.55448844 -2.85902405 56.28431702 C-0.80973511 53.77611396 1.35966522 51.4564189 3.60191345 49.12025452 C4.91151219 47.42562869 6.2043683 45.71787879 7.47691345 43.99525452 C9.15660095 41.73744202 9.15660095 41.73744202 10.60191345 40.12025452 C11.26191345 40.12025452 11.92191345 40.12025452 12.60191345 40.12025452 C12.96156189 39.29654358 12.96156189 39.29654358 13.32847595 38.45619202 C14.90221167 35.56940073 16.85801953 33.25836126 18.97691345 30.74525452 C22.10408078 26.98358947 25.02085793 23.27238731 27.60191345 19.12025452 C27.06654968 19.28702698 26.53118591 19.45379944 25.979599 19.62562561 C23.09032572 20.22667989 20.50843997 20.14754398 17.5589447 20.03431702 C16.40330017 19.99048889 15.24765564 19.94666077 14.05699158 19.90150452 C12.8549408 19.84994202 11.65289001 19.79837952 10.41441345 19.74525452 C8.59393494 19.67951233 8.59393494 19.67951233 6.73667908 19.61244202 C-2.26873615 19.24960492 -2.26873615 19.24960492 -3.39808655 18.12025452 C-3.4979563 15.27690404 -3.53686536 12.46328289 -3.52308655 9.62025452 C-3.52695374 8.82232483 -3.53082092 8.02439514 -3.5348053 7.20228577 C-3.52287724 0.1766583 -3.52287724 0.1766583 0 0 Z " transform="translate(168.39808654785156,49.87974548339844)" style="fill: #454446;"/><path d="M0 0 C-1.73982995 5.81261371 -3.8110489 10.83169994 -7 16 C-10.85392756 15.47919898 -14.41926382 14.5744263 -18.125 13.4375 C-23.98686283 11.80742033 -29.94880175 11.04749657 -36 12 C-37.83894473 13.40868871 -37.83894473 13.40868871 -39 15 C-38.36069816 16.99791105 -38.36069816 16.99791105 -37 19 C-34.65335663 20.11254415 -34.65335663 20.11254415 -31.8359375 20.74609375 C-30.79566406 21.02646484 -29.75539063 21.30683594 -28.68359375 21.59570312 C-27.59175781 21.87349609 -26.49992187 22.15128906 -25.375 22.4375 C-6.25447672 27.33871978 -6.25447672 27.33871978 -0.8515625 35.71875 C1.3401191 41.59004383 1.17884726 48.57701689 -0.8515625 54.47265625 C-4.50063792 60.91439142 -10.50029628 65.33100465 -17.375 67.875 C-32.01975619 71.6035729 -47.87335504 69.27075797 -60.95703125 61.828125 C-61.96121094 61.22484375 -62.96539062 60.6215625 -64 60 C-63.40165275 55.85701333 -61.99335715 52.81805623 -59.9375 49.1875 C-59.38964844 48.21167969 -58.84179688 47.23585937 -58.27734375 46.23046875 C-57.64505859 45.12638672 -57.64505859 45.12638672 -57 44 C-53.00114212 44.64926106 -49.5998029 45.92588182 -45.875 47.5 C-38.18088722 50.51832542 -31.12519164 51.8862052 -23 50 C-23 48.02 -23 46.04 -23 44 C-27.72876705 41.36380546 -32.08057361 40.18231905 -37.3125 39.125 C-46.87187932 37.0168557 -54.23956713 34.28062224 -60 26 C-62.12009319 19.63972044 -61.86076624 12.02449603 -59.171875 5.84765625 C-54.96332238 -0.78782838 -48.26331477 -4.69113337 -40.78515625 -6.55078125 C-26.67984631 -8.82583124 -12.62755434 -6.68743014 0 0 Z " transform="translate(454,56)" style="fill: #98A461;"/><path d="M0 0 C1.39895508 -0.01836914 1.39895508 -0.01836914 2.82617188 -0.03710938 C4.16325195 -0.04000977 4.16325195 -0.04000977 5.52734375 -0.04296875 C6.348396 -0.04707764 7.16944824 -0.05118652 8.01538086 -0.05541992 C10.0625 0.1875 10.0625 0.1875 12.0625 2.1875 C12.30300903 5.19937134 12.30300903 5.19937134 12.28955078 9.11572266 C12.28984283 9.82802536 12.29013489 10.54032806 12.29043579 11.2742157 C12.28904016 13.63345434 12.27346827 15.99237889 12.2578125 18.3515625 C12.25408319 19.98538032 12.25123583 21.61920038 12.24923706 23.25302124 C12.2415941 27.55702876 12.22193999 31.86090168 12.1998291 36.16485596 C12.17579157 41.32685566 12.16659284 46.48890031 12.15492249 51.65093994 C12.1355159 59.49655362 12.09719811 67.34187188 12.0625 75.1875 C27.2425 75.1875 42.4225 75.1875 58.0625 75.1875 C58.75690384 80.04832686 59.19866526 84.22794241 59.1875 89.0625 C59.19136719 90.76019531 59.19136719 90.76019531 59.1953125 92.4921875 C59.0625 95.1875 59.0625 95.1875 58.0625 96.1875 C55.95112099 96.28698193 53.83637714 96.31549638 51.72265625 96.31689453 C50.72998245 96.31952301 50.72998245 96.31952301 49.71725464 96.32220459 C47.5198101 96.32662217 45.32244542 96.32368547 43.125 96.3203125 C41.60424789 96.32098557 40.08349588 96.32195561 38.56274414 96.32321167 C35.37157164 96.32468851 32.18042708 96.32253452 28.98925781 96.31787109 C24.8898547 96.3121738 20.79051704 96.31545288 16.69111633 96.32144356 C13.54967756 96.32504954 10.40825442 96.32391042 7.26681519 96.32131577 C5.75487256 96.3206466 4.24292854 96.32147457 2.73098755 96.32379532 C0.62140113 96.32632245 -1.48807787 96.32248044 -3.59765625 96.31689453 C-4.80043213 96.31609894 -6.00320801 96.31530334 -7.24243164 96.31448364 C-9.9375 96.1875 -9.9375 96.1875 -10.9375 95.1875 C-11.03808243 92.27092371 -11.07365211 89.37799054 -11.06689453 86.4609375 C-11.06864685 85.54556213 -11.07039917 84.63018677 -11.07220459 83.68707275 C-11.07662461 80.64552951 -11.07368459 77.60404389 -11.0703125 74.5625 C-11.0709855 72.4588215 -11.07195548 70.35514308 -11.07321167 68.25146484 C-11.07468885 63.83625551 -11.07253345 59.42106637 -11.06787109 55.00585938 C-11.0621738 49.33257439 -11.0654527 43.65933671 -11.07144356 37.98605347 C-11.07504864 33.64021444 -11.07391083 29.29438672 -11.07131577 24.94854736 C-11.07064635 22.8560587 -11.07147543 20.76356903 -11.07379532 18.67108154 C-11.07632098 15.75204734 -11.07248248 12.83309088 -11.06689453 9.9140625 C-11.06891876 9.0402594 -11.07094299 8.1664563 -11.07302856 7.26617432 C-11.04113002 -1.6802274 -7.9215392 0.00545185 0 0 Z " transform="translate(24.9375,27.8125)" style="fill: #434345;"/><path d="M0 0 C1.26457031 0.00290039 1.26457031 0.00290039 2.5546875 0.00585938 C3.43125 0.01810547 4.3078125 0.03035156 5.2109375 0.04296875 C6.53738281 0.04393555 6.53738281 0.04393555 7.890625 0.04492188 C14.44563224 0.09016349 14.44563224 0.09016349 15.5859375 1.23046875 C15.67263182 2.71918735 15.69297244 4.21191375 15.68359375 5.703125 C15.68037109 6.60224609 15.67714844 7.50136719 15.67382812 8.42773438 C15.66125977 9.84602539 15.66125977 9.84602539 15.6484375 11.29296875 C15.64392578 12.24236328 15.63941406 13.19175781 15.63476562 14.16992188 C15.6229386 16.5234994 15.60645775 18.87695352 15.5859375 21.23046875 C16.78992188 21.20726563 17.99390625 21.1840625 19.234375 21.16015625 C20.80988965 21.14140012 22.38541098 21.12319976 23.9609375 21.10546875 C24.755 21.08871094 25.5490625 21.07195313 26.3671875 21.0546875 C28.44085765 21.03711402 30.51476991 21.12711707 32.5859375 21.23046875 C34.5859375 23.23046875 34.5859375 23.23046875 34.6328125 26.453125 C34.53484375 27.72027344 34.436875 28.98742187 34.3359375 30.29296875 C34.24828125 31.56269531 34.160625 32.83242188 34.0703125 34.140625 C33.91046875 35.16027344 33.750625 36.17992187 33.5859375 37.23046875 C30.39769182 38.82459159 26.95697088 38.3322161 23.4609375 38.29296875 C22.32978516 38.28620117 22.32978516 38.28620117 21.17578125 38.27929688 C19.31246623 38.26750374 17.44919195 38.24956817 15.5859375 38.23046875 C15.70423516 42.73300691 15.82848684 47.23532654 15.95825195 51.73754883 C16.00155583 53.26907893 16.04323417 54.8006559 16.08325195 56.33227539 C16.14106482 58.53416057 16.20472719 60.73581086 16.26953125 62.9375 C16.28624374 63.62197708 16.30295624 64.30645416 16.32017517 65.01167297 C16.413293 68.00166979 16.63281187 70.37109186 17.5859375 73.23046875 C20.52980373 74.70240187 22.95983786 74.07983048 26.2109375 73.79296875 C27.99371094 73.64021484 27.99371094 73.64021484 29.8125 73.484375 C31.18535156 73.35869141 31.18535156 73.35869141 32.5859375 73.23046875 C35.21469155 78.60227051 36.194334 83.27539476 36.5859375 89.23046875 C27.22804617 94.22289216 18.72693863 95.851281 8.2734375 92.98046875 C1.66950219 90.75848739 -2.01297841 87.32896436 -5.4140625 81.23046875 C-7.09931 75.60450725 -7.69272505 70.64129645 -7.609375 64.79296875 C-7.6065451 64.02742676 -7.60371521 63.26188477 -7.60079956 62.47314453 C-7.58971898 60.05875151 -7.56463851 57.64474721 -7.5390625 55.23046875 C-7.52901698 53.58073457 -7.5198939 51.93099451 -7.51171875 50.28125 C-7.48981962 46.26417607 -7.45537575 42.24738802 -7.4140625 38.23046875 C-8.05214844 38.24207031 -8.69023437 38.25367188 -9.34765625 38.265625 C-10.17394531 38.27464844 -11.00023437 38.28367188 -11.8515625 38.29296875 C-12.67527344 38.30457031 -13.49898438 38.31617188 -14.34765625 38.328125 C-16.4140625 38.23046875 -16.4140625 38.23046875 -17.4140625 37.23046875 C-17.6765508 34.92348827 -17.87447193 32.60899314 -18.0390625 30.29296875 C-18.13445312 29.02582031 -18.22984375 27.75867188 -18.328125 26.453125 C-18.4140625 23.23046875 -18.4140625 23.23046875 -17.4140625 21.23046875 C-15.34765625 20.81640625 -15.34765625 20.81640625 -12.8515625 20.60546875 C-12.02527344 20.53070313 -11.19898438 20.4559375 -10.34765625 20.37890625 C-9.39052734 20.30542969 -9.39052734 20.30542969 -8.4140625 20.23046875 C-8.37667969 18.95429687 -8.33929688 17.678125 -8.30078125 16.36328125 C-8.23513459 14.69398037 -8.1686868 13.02471086 -8.1015625 11.35546875 C-8.07900391 10.51371094 -8.05644531 9.67195313 -8.03320312 8.8046875 C-7.99775391 7.99902344 -7.96230469 7.19335938 -7.92578125 6.36328125 C-7.89959717 5.61965332 -7.87341309 4.87602539 -7.84643555 4.10986328 C-6.91051137 0.04168466 -3.51343935 -0.01865349 0 0 Z " transform="translate(475.4140625,30.76953125)" style="fill: #98A361;"/><path d="M0 0 C0.02683987 2.97922593 0.04676037 5.95821295 0.0625 8.9375 C0.07087891 9.78763672 0.07925781 10.63777344 0.08789062 11.51367188 C0.09111328 12.32255859 0.09433594 13.13144531 0.09765625 13.96484375 C0.10289307 14.7137085 0.10812988 15.46257324 0.11352539 16.23413086 C0 18 0 18 -1 19 C-3.96625326 19.5004415 -6.9410292 19.90087834 -9.921875 20.3046875 C-15.58268088 21.58339746 -18.71360248 24.30514641 -22 29 C-22.88698563 31.66095688 -23.14061184 33.264022 -23.18945312 35.99658203 C-23.20617065 36.79395782 -23.22288818 37.59133362 -23.2401123 38.41287231 C-23.25368774 39.26920258 -23.26726318 40.12553284 -23.28125 41.0078125 C-23.29965942 41.88903778 -23.31806885 42.77026306 -23.33703613 43.67819214 C-23.41577833 47.45184111 -23.48365404 51.22566669 -23.55224609 54.99951172 C-23.6038297 57.75237243 -23.66111817 60.50507287 -23.71875 63.2578125 C-23.73232544 64.11819122 -23.74590088 64.97856995 -23.7598877 65.86502075 C-23.88715199 71.88715199 -23.88715199 71.88715199 -25 73 C-28.30516934 73.25035974 -31.62396041 73.18521952 -34.9375 73.1875 C-35.87013672 73.19974609 -36.80277344 73.21199219 -37.76367188 73.22460938 C-39.10075195 73.22750977 -39.10075195 73.22750977 -40.46484375 73.23046875 C-41.285896 73.23457764 -42.10694824 73.23868652 -42.95288086 73.24291992 C-45 73 -45 73 -47 71 C-47.25396729 68.11547852 -47.25396729 68.11547852 -47.25878906 64.37890625 C-47.2622937 63.69907684 -47.26579834 63.01924744 -47.26940918 62.31881714 C-47.27822781 60.06660824 -47.27237705 57.81471222 -47.265625 55.5625 C-47.26697162 54.00073181 -47.26891212 52.43896402 -47.27142334 50.87719727 C-47.27437477 47.60201023 -47.27007639 44.32693219 -47.26074219 41.05175781 C-47.24934757 36.84816309 -47.25590695 32.64482375 -47.26788712 28.4412384 C-47.27510523 25.21567858 -47.27281803 21.99017955 -47.26763153 18.76461792 C-47.2662949 17.21442637 -47.26794324 15.66422935 -47.27259064 14.11404419 C-47.27765516 11.94957807 -47.2699471 9.78552873 -47.25878906 7.62109375 C-47.25719788 6.3880249 -47.25560669 5.15495605 -47.25396729 3.88452148 C-47 1 -47 1 -45 -1 C-43.04467773 -1.24291992 -43.04467773 -1.24291992 -40.68359375 -1.23046875 C-39.83732422 -1.22853516 -38.99105469 -1.22660156 -38.11914062 -1.22460938 C-37.23419922 -1.21236328 -36.34925781 -1.20011719 -35.4375 -1.1875 C-34.54869141 -1.18685547 -33.65988281 -1.18621094 -32.74414062 -1.18554688 C-26.14021097 -1.14021097 -26.14021097 -1.14021097 -25 0 C-24.85884839 2.67058851 -24.95752893 5.32432238 -25 8 C-24.40832031 7.51789062 -23.81664062 7.03578125 -23.20703125 6.5390625 C-22.41683594 5.90742187 -21.62664063 5.27578125 -20.8125 4.625 C-20.03519531 3.99851562 -19.25789062 3.37203125 -18.45703125 2.7265625 C-12.88979589 -1.18554884 -6.20547714 -3.5304684 0 0 Z " transform="translate(654,51)" style="fill: #98A463;"/><path d="M0 0 C1.15822266 -0.020625 2.31644531 -0.04125 3.50976562 -0.0625 C5.17362305 -0.07023437 5.17362305 -0.07023437 6.87109375 -0.078125 C8.39947876 -0.09214355 8.39947876 -0.09214355 9.95874023 -0.10644531 C12.5625 0.25 12.5625 0.25 14.41430664 1.62988281 C15.5625 3.25 15.5625 3.25 15.625 5.5 C13.15976639 11.88060465 7.7334781 16.04106434 2.5625 20.25 C2.2325 20.91 1.9025 21.57 1.5625 22.25 C2.41714844 22.23839844 3.27179688 22.22679688 4.15234375 22.21484375 C5.25707031 22.20582031 6.36179687 22.19679688 7.5 22.1875 C8.60214844 22.17589844 9.70429688 22.16429688 10.83984375 22.15234375 C13.5625 22.25 13.5625 22.25 14.5625 23.25 C14.75 26.1875 14.75 26.1875 14.5625 29.25 C12.5625 31.25 12.5625 31.25 10.13232422 31.47705078 C9.1373291 31.46657715 8.14233398 31.45610352 7.1171875 31.4453125 C6.04082031 31.43886719 4.96445312 31.43242188 3.85546875 31.42578125 C2.72753906 31.40902344 1.59960938 31.39226563 0.4375 31.375 C-0.69816406 31.36597656 -1.83382813 31.35695313 -3.00390625 31.34765625 C-5.81531299 31.32403098 -8.62630298 31.29109013 -11.4375 31.25 C-12.5625 28.4375 -12.5625 28.4375 -13.4375 25.25 C-12.7775 24.26 -12.1175 23.27 -11.4375 22.25 C-10.7775 22.25 -10.1175 22.25 -9.4375 22.25 C-9.19257813 21.67765625 -8.94765625 21.1053125 -8.6953125 20.515625 C-7.22639901 17.86975598 -5.48401756 16.10146861 -3.3125 14 C-2.58804687 13.29359375 -1.86359375 12.5871875 -1.1171875 11.859375 C-0.56289063 11.32828125 -0.00859375 10.7971875 0.5625 10.25 C-0.91863281 10.19392578 -0.91863281 10.19392578 -2.4296875 10.13671875 C-3.71101563 10.07097656 -4.99234375 10.00523438 -6.3125 9.9375 C-7.58867187 9.87949219 -8.86484375 9.82148437 -10.1796875 9.76171875 C-11.79230469 9.50841797 -11.79230469 9.50841797 -13.4375 9.25 C-15.4375 6.25 -15.4375 6.25 -15.1875 3.625 C-14.94 2.84125 -14.6925 2.0575 -14.4375 1.25 C-10.20986591 -0.86381704 -4.644912 0.0206097 0 0 Z " transform="translate(349.4375,29.75)" style="fill: #999F64;"/><path d="M0 0 C9.30038174 -0.60305069 16.188956 -0.33437151 24 5 C24.71929688 5.4846875 25.43859375 5.969375 26.1796875 6.46875 C33.16690206 11.84758687 37.80887086 20.25181823 39 29 C39.11552871 31.3938623 39.17487294 33.79088485 39.1875 36.1875 C39.20167969 37.41855469 39.21585938 38.64960937 39.23046875 39.91796875 C39 43 39 43 37 45 C34.45865799 45.17849902 32.039534 45.23277303 29.5 45.1875 C28.75693604 45.18105469 28.01387207 45.17460938 27.24829102 45.16796875 C18.81950205 45.055315 10.40972458 44.55081237 2 44 C2.33 43.34 2.66 42.68 3 42 C13.89 41.67 24.78 41.34 36 41 C37.33111019 38.33777962 36.95269869 36.57780926 36.6875 33.625 C36.60886719 32.66851562 36.53023437 31.71203125 36.44921875 30.7265625 C36.01047649 28.06358774 35.29184527 26.33928738 34 24 C33.71125 23.030625 33.4225 22.06125 33.125 21.0625 C31.89935074 17.72601034 30.27515881 15.70175109 28 13 C27.29114106 11.68861096 26.60543548 10.36222983 26 9 C25.01 9.33 24.02 9.66 23 10 C23 9.01 23 8.02 23 7 C19.78175748 4.98859843 16.74960717 4.66879036 13.01953125 4.28125 C10.21069837 3.89007792 7.66545709 2.94771808 5 2 C3.33911955 1.63893903 1.67381019 1.29537827 0 1 C0 0.67 0 0.34 0 0 Z " transform="translate(694,50)" style="fill: #96996B;"/><path d="M0 0 C0.78552246 0.01047363 1.57104492 0.02094727 2.38037109 0.03173828 C3.23115234 0.03818359 4.08193359 0.04462891 4.95849609 0.05126953 C6.29267578 0.07640625 6.29267578 0.07640625 7.65380859 0.10205078 C8.99958984 0.11558594 8.99958984 0.11558594 10.37255859 0.12939453 C12.59157445 0.15300108 14.81005937 0.18592768 17.02880859 0.22705078 C17.35880859 1.21705078 17.68880859 2.20705078 18.02880859 3.22705078 C16.75263672 3.14326172 15.47646484 3.05947266 14.16162109 2.97314453 C12.49236825 2.86998846 10.82309639 2.76713979 9.15380859 2.66455078 C8.31205078 2.60847656 7.47029297 2.55240234 6.60302734 2.49462891 C5.79736328 2.44628906 4.99169922 2.39794922 4.16162109 2.34814453 C3.41799316 2.30101318 2.67436523 2.25388184 1.90820312 2.20532227 C-0.06366218 2.09126803 -0.06366218 2.09126803 -1.97119141 3.22705078 C-1.64119141 4.21705078 -1.31119141 5.20705078 -0.97119141 6.22705078 C-0.90997851 8.35924122 -0.91290137 10.49346513 -0.94946289 12.6262207 C-0.95907043 13.27039444 -0.96867798 13.91456818 -0.97857666 14.57826233 C-1.01152444 16.70479407 -1.05187257 18.83111764 -1.09228516 20.95751953 C-1.11659041 22.4329607 -1.14043377 23.90840955 -1.16383362 25.38386536 C-1.22663423 29.26537831 -1.29571222 33.14675521 -1.36608887 37.02813721 C-1.43680868 40.98956105 -1.50160381 44.95108128 -1.56689453 48.91259766 C-1.69585504 56.68419081 -1.83199335 64.45563302 -1.97119141 72.22705078 C6.93880859 71.23705078 6.93880859 71.23705078 16.02880859 70.22705078 C16.02880859 71.21705078 16.02880859 72.20705078 16.02880859 73.22705078 C16.68880859 73.55705078 17.34880859 73.88705078 18.02880859 74.22705078 C14.73721543 74.28495431 11.44575256 74.32061339 8.15380859 74.35205078 C7.21666016 74.36880859 6.27951172 74.38556641 5.31396484 74.40283203 C4.41806641 74.40927734 3.52216797 74.41572266 2.59912109 74.42236328 C1.7717041 74.43283691 0.94428711 74.44331055 0.09179688 74.45410156 C-1.97119141 74.22705078 -1.97119141 74.22705078 -3.97119141 72.22705078 C-4.22515869 69.3425293 -4.22515869 69.3425293 -4.22998047 65.60595703 C-4.23348511 64.92612762 -4.23698975 64.24629822 -4.24060059 63.54586792 C-4.24941922 61.29365902 -4.24356846 59.041763 -4.23681641 56.78955078 C-4.23816302 55.22778259 -4.24010353 53.6660148 -4.24261475 52.10424805 C-4.24556618 48.82906101 -4.2412678 45.55398297 -4.23193359 42.27880859 C-4.22053898 38.07521387 -4.22709836 33.87187453 -4.23907852 29.66828918 C-4.24629664 26.44272936 -4.24400943 23.21723033 -4.23882294 19.9916687 C-4.2374863 18.44147715 -4.23913464 16.89128013 -4.24378204 15.34109497 C-4.24884656 13.17662885 -4.24113851 11.01257951 -4.22998047 8.84814453 C-4.22838928 7.61507568 -4.2267981 6.38200684 -4.22515869 5.11157227 C-3.93523876 1.81870614 -3.46344834 0.39893571 0 0 Z " transform="translate(610.97119140625,49.77294921875)" style="fill: #8D9163;"/><path d="M0 0 C0.66 0 1.32 0 2 0 C0.32842562 5.29331886 -1.54633044 10.44615581 -3.625 15.59375 C-5.71043665 20.77344 -7.77729584 25.95985531 -9.82174683 31.15586853 C-11.15942874 34.55331645 -12.50411518 37.94797531 -13.84912109 41.3425293 C-14.53194496 43.06973893 -15.2122929 44.79792948 -15.89013672 46.52709961 C-19.38862231 55.44545325 -22.97101784 64.30842556 -27.1328125 72.94140625 C-27.58259964 73.90734962 -27.58259964 73.90734962 -28.04147339 74.89280701 C-30.33455319 79.49857579 -32.95945875 81.98407821 -37 85 C-37.33 84.01 -37.66 83.02 -38 82 C-36.59938334 79.71478335 -35.11552519 78.09689209 -33.0625 76.375 C-29.92331822 72.76018462 -28.60266148 68.46699263 -27 64 C-26.34 64 -25.68 64 -25 64 C-24.9175 63.030625 -24.835 62.06125 -24.75 61.0625 C-24.19649159 57.21100401 -22.81982379 54.08924269 -21.17578125 50.5859375 C-18.10563329 43.83365195 -15.53246657 36.84365971 -13.375 29.75 C-12.92125 28.5125 -12.4675 27.275 -12 26 C-11.01 25.67 -10.02 25.34 -9 25 C-8.9175 23.700625 -8.835 22.40125 -8.75 21.0625 C-8.05129464 14.65263776 -5.55055349 9.32583024 -2 4 C-1.34 4 -0.68 4 0 4 C0 2.68 0 1.36 0 0 Z " transform="translate(384,60)" style="fill: #929669;"/><path d="M0 0 C0.72807861 0.00088623 1.45615723 0.00177246 2.20629883 0.00268555 C12.04647118 0.21259502 21.22971235 2.76344023 29.9375 7.375 C28.19767005 13.18761371 26.1264511 18.20669994 22.9375 23.375 C17.1875 22.5 17.1875 22.5 14.9375 21.375 C14.9375 20.715 14.9375 20.055 14.9375 19.375 C14.2775 19.045 13.6175 18.715 12.9375 18.375 C14.9175 18.375 16.8975 18.375 18.9375 18.375 C18.9375 19.035 18.9375 19.695 18.9375 20.375 C20.2575 20.375 21.5775 20.375 22.9375 20.375 C23.2675 16.745 23.5975 13.115 23.9375 9.375 C24.5975 9.375 25.2575 9.375 25.9375 9.375 C25.9375 8.715 25.9375 8.055 25.9375 7.375 C25.27363281 7.24222656 24.60976563 7.10945313 23.92578125 6.97265625 C15.9375 5.375 15.9375 5.375 13.453125 4.84765625 C3.4728086 2.97247258 -8.68834958 1.77917758 -18.0625 6.375 C-18.495625 7.365 -18.495625 7.365 -18.9375 8.375 C-20.0625 10.375 -20.0625 10.375 -23.6875 11.625 C-24.80125 11.8725 -25.915 12.12 -27.0625 12.375 C-25.63964157 8.91520739 -24.03647005 7.31238076 -20.9375 5.25 C-20.21304687 4.75242187 -19.48859375 4.25484375 -18.7421875 3.7421875 C-12.78148913 0.70101486 -6.61684012 -0.01478884 0 0 Z " transform="translate(424.0625,48.625)" style="fill: #94986A;"/><path d="M0 0 C3.875 0.875 3.875 0.875 5 2 C5.09439978 4.26991887 5.11742226 6.54281967 5.11352539 8.81469727 C5.11367142 9.52685394 5.11381744 10.23901062 5.1139679 10.9727478 C5.1132687 13.33733112 5.10547606 15.70183661 5.09765625 18.06640625 C5.09579209 19.70165463 5.09436818 21.33690357 5.09336853 22.97215271 C5.08954318 27.28434785 5.07971275 31.59650952 5.06866455 35.90869141 C5.0584508 40.30565946 5.05387099 44.70263289 5.04882812 49.09960938 C5.03809049 57.73308831 5.02101387 66.36654 5 75 C6.20398437 74.97679688 7.40796875 74.95359375 8.6484375 74.9296875 C10.22395215 74.91093137 11.79947348 74.89273101 13.375 74.875 C14.56609375 74.84986328 14.56609375 74.84986328 15.78125 74.82421875 C17.85492015 74.80664527 19.92883241 74.89664832 22 75 C22.66 75.66 23.32 76.32 24 77 C17.07 77 10.14 77 3 77 C3 52.25 3 27.5 3 2 C2.01 2 1.02 2 0 2 C0 1.34 0 0.68 0 0 Z " transform="translate(32,28)" style="fill: #5D5956;"/><path d="M0 0 C2.64 0 5.28 0 8 0 C8 0.66 8 1.32 8 2 C6.35 2 4.7 2 3 2 C1.78306124 4.43387753 1.68040104 6.41838846 1.4375 9.125 C1.293125 10.73375 1.14875 12.3425 1 14 C4.96 14.33 8.92 14.66 13 15 C12.67 15.99 12.34 16.98 12 18 C11.90580312 19.9070425 11.86928801 21.81719619 11.8671875 23.7265625 C11.86589844 24.8403125 11.86460937 25.9540625 11.86328125 27.1015625 C11.86714844 28.26429687 11.87101562 29.42703125 11.875 30.625 C11.87113281 31.79546875 11.86726563 32.9659375 11.86328125 34.171875 C11.86457031 35.28304687 11.86585938 36.39421875 11.8671875 37.5390625 C11.86831543 38.56209473 11.86944336 39.58512695 11.87060547 40.63916016 C11.73425394 42.9567038 11.73425394 42.9567038 13 44 C12.87625 45.9490625 12.87625 45.9490625 12.75 47.9375 C12.65233222 53.03250275 14.38804879 56.39438416 16.90625 60.73828125 C18 63 18 63 18 67 C12.80471386 62.78760584 11.17788586 58.53400688 10 52 C9.53502677 45.97152997 9.71549776 39.91476216 9.8125 33.875 C9.82757678 32.23438731 9.84125988 30.59376119 9.85351562 28.953125 C9.8862783 24.96841333 9.9378937 20.98435791 10 17 C9.36191406 17.01160156 8.72382813 17.02320312 8.06640625 17.03515625 C7.24011719 17.04417969 6.41382813 17.05320312 5.5625 17.0625 C4.32693359 17.07990234 4.32693359 17.07990234 3.06640625 17.09765625 C1 17 1 17 0 16 C-0.2624883 13.69301952 -0.46040943 11.37852439 -0.625 9.0625 C-0.72039062 7.79535156 -0.81578125 6.52820312 -0.9140625 5.22265625 C-1 2 -1 2 0 0 Z " transform="translate(458,52)" style="fill: #95986F;"/><path d="M0 0 C2.48474503 1.06489073 3.97791557 1.97563097 5.8125 4 C9.48632816 7.35892861 13.53067277 7.86395118 18.375 8.3125 C23.80141684 7.84470545 28.92404453 6.57099333 33.3125 3.25 C35 2 35 2 36.84375 2.20703125 C39.4961009 3.1824429 41.0934618 4.54775821 43.1875 6.4375 C43.88230469 7.05496094 44.57710937 7.67242187 45.29296875 8.30859375 C47 10 47 10 48 12 C45.6875 11.75 45.6875 11.75 43 11 C41.5 9 41.5 9 40 7 C36.66386877 5.88795626 34.32378281 5.8920724 31 7 C31 7.66 31 8.32 31 9 C30.01 9 29.02 9 28 9 C28 9.66 28 10.32 28 11 C21.27709124 12.68072719 15.41587404 12.56634962 9 10 C9 9.34 9 8.68 9 8 C7.35 7.67 5.7 7.34 4 7 C3.896875 6.360625 3.79375 5.72125 3.6875 5.0625 C3.460625 4.381875 3.23375 3.70125 3 3 C2.01 2.67 1.02 2.34 0 2 C0 1.34 0 0.68 0 0 Z " transform="translate(679,98)" style="fill: #94986A;"/><path d="M0 0 C0.66 0.66 1.32 1.32 2 2 C1.67 2.99 1.34 3.98 1 5 C0.34 5 -0.32 5 -1 5 C-0.731875 5.556875 -0.46375 6.11375 -0.1875 6.6875 C-0.125625 7.450625 -0.06375 8.21375 0 9 C-2.3125 11.5625 -2.3125 11.5625 -5 14 C-5.99 15.485 -5.99 15.485 -7 17 C-10.125 17.1875 -10.125 17.1875 -13 17 C-13 15.68 -13 14.36 -13 13 C-12.34 13 -11.68 13 -11 13 C-10.690625 12.360625 -10.38125 11.72125 -10.0625 11.0625 C-9 9 -9 9 -8 8 C-8.66 7.34 -9.32 6.68 -10 6 C-9.01 5.67 -8.02 5.34 -7 5 C-7.94875 5.020625 -8.8975 5.04125 -9.875 5.0625 C-13 5 -13 5 -15 4 C-15 3.34 -15 2.68 -15 2 C-10.58937864 0.9742741 -8.07369424 0.96315288 -4 3 C-4 2.34 -4 1.68 -4 1 C-2.125 0.375 -2.125 0.375 0 0 Z " transform="translate(361,32)" style="fill: #A0A967;"/><path d="M0 0 C2.58837761 3.88256641 2.25793118 7.13223217 2.1875 11.625 C2.18685547 12.41390625 2.18621094 13.2028125 2.18554688 14.015625 C2.1403612 19.8596388 2.1403612 19.8596388 1 21 C-0.59610982 21.09333705 -2.19633428 21.11745372 -3.79516602 21.11352539 C-4.81614883 21.11344986 -5.83713165 21.11337433 -6.88905334 21.11329651 C-7.9994548 21.10813522 -9.10985626 21.10297394 -10.25390625 21.09765625 C-11.38448959 21.0962413 -12.51507294 21.09482635 -13.67991638 21.09336853 C-17.30747065 21.08775019 -20.93496424 21.07519458 -24.5625 21.0625 C-27.01497307 21.05748736 -29.4674471 21.05292405 -31.91992188 21.04882812 C-37.94663545 21.0377748 -43.97331339 21.02101884 -50 21 C-50.33 21.99 -50.66 22.98 -51 24 C-51.33 22.35 -51.66 20.7 -52 19 C-34.51 19 -17.02 19 1 19 C0.67 12.73 0.34 6.46 0 0 Z " transform="translate(305,74)" style="fill: #575454;"/><path d="M0 0 C-2.50551095 5.75523308 -7.08276299 8.56989584 -12.59765625 11.2734375 C-25.10751793 16.12595606 -37.61749027 15.44149755 -49.75390625 10.09375 C-50.86572266 9.55234375 -50.86572266 9.55234375 -52 9 C-52 8.67 -52 8.34 -52 8 C-50.02 8 -48.04 8 -46 8 C-46 8.66 -46 9.32 -46 10 C-45.071875 9.95875 -44.14375 9.9175 -43.1875 9.875 C-39.90549425 9.84211417 -37.06130289 10.42707925 -33.875 11.1875 C-26.58200643 12.5938624 -19.17515831 11.3878232 -12.69140625 7.6796875 C-11.0843778 6.51033208 -9.53515218 5.26223624 -8 4 C-7.34 4 -6.68 4 -6 4 C-6 3.34 -6 2.68 -6 2 C-3 0 -3 0 0 0 Z " transform="translate(727,111)" style="fill: #93966B;"/><path d="M0 0 C-0.66 0 -1.32 0 -2 0 C-2 0.66 -2 1.32 -2 2 C-1.21625 2.2475 -0.4325 2.495 0.375 2.75 C3.32317108 4.15389099 3.9024777 5.00675737 5 8 C5.66 8 6.32 8 7 8 C10.88282799 12.50408047 11.17154442 18.27368383 11 24 C10.28260782 26.65480802 9.34705769 28.57529615 8 31 C7.67 31 7.34 31 7 31 C7.03480469 30.0821875 7.06960938 29.164375 7.10546875 28.21875 C7.33519542 18.22078968 7.33519542 18.22078968 4 9 C-0.43958409 4.67140551 -4.1462188 3.89222009 -10.1875 3.4375 C-11.27417969 3.35371094 -12.36085938 3.26992187 -13.48046875 3.18359375 C-14.31191406 3.12300781 -15.14335938 3.06242187 -16 3 C-15.67 2.01 -15.34 1.02 -15 0 C-13.948125 0.020625 -12.89625 0.04125 -11.8125 0.0625 C-8.15485053 0.11968402 -8.15485053 0.11968402 -5.25 -0.5625 C-3 -1 -3 -1 0 0 Z " transform="translate(565,66)" style="fill: #93996C;"/><path d="M0 0 C0.78552246 0.01047363 1.57104492 0.02094727 2.38037109 0.03173828 C3.23115234 0.03818359 4.08193359 0.04462891 4.95849609 0.05126953 C6.29267578 0.07640625 6.29267578 0.07640625 7.65380859 0.10205078 C8.99958984 0.11558594 8.99958984 0.11558594 10.37255859 0.12939453 C12.59157445 0.15300108 14.81005937 0.18592768 17.02880859 0.22705078 C17.35880859 1.21705078 17.68880859 2.20705078 18.02880859 3.22705078 C16.75263672 3.14326172 15.47646484 3.05947266 14.16162109 2.97314453 C12.49236825 2.86998846 10.82309639 2.76713979 9.15380859 2.66455078 C8.31205078 2.60847656 7.47029297 2.55240234 6.60302734 2.49462891 C5.79736328 2.44628906 4.99169922 2.39794922 4.16162109 2.34814453 C3.41799316 2.30101318 2.67436523 2.25388184 1.90820312 2.20532227 C-0.06366218 2.09126803 -0.06366218 2.09126803 -1.97119141 3.22705078 C-1.64119141 4.21705078 -1.31119141 5.20705078 -0.97119141 6.22705078 C-1.02394972 9.11000748 -1.13859406 11.95648318 -1.31103516 14.83251953 C-1.37974571 16.09132683 -1.37974571 16.09132683 -1.44984436 17.37556458 C-1.5973775 20.05556019 -1.75293553 22.73502171 -1.90869141 25.41455078 C-2.01013175 27.23157862 -2.11104962 29.04863572 -2.21142578 30.86572266 C-2.45861993 35.31986074 -2.71301208 39.77353648 -2.97119141 44.22705078 C-3.30119141 44.22705078 -3.63119141 44.22705078 -3.97119141 44.22705078 C-4.02053539 38.28223897 -4.05688422 32.33754569 -4.08105469 26.39257812 C-4.09112811 24.36911951 -4.10478736 22.3456755 -4.12207031 20.32226562 C-4.14625988 17.41809489 -4.15766089 14.51411617 -4.16650391 11.60986328 C-4.17682648 10.70148712 -4.18714905 9.79311096 -4.19778442 8.85720825 C-4.19793549 8.01648773 -4.19808655 7.17576721 -4.19824219 6.30957031 C-4.20268341 5.56788605 -4.20712463 4.82620178 -4.21170044 4.06204224 C-3.8484103 1.29027818 -2.74770304 0.31649292 0 0 Z " transform="translate(610.97119140625,49.77294921875)" style="fill: #92946C;"/><path d="M0 0 C0.66 0.66 1.32 1.32 2 2 C-0.67442008 3.02862311 -1.78236737 3.08318252 -4.50390625 2.04296875 C-9.16289438 0.65308067 -13.47780616 0.6703921 -18.3125 0.6875 C-19.21162109 0.67138672 -20.11074219 0.65527344 -21.03710938 0.63867188 C-27.21234757 0.63420677 -32.27893649 1.68264048 -38 4 C-37.67 3.34 -37.34 2.68 -37 2 C-36.01 2 -35.02 2 -34 2 C-33.67 1.01 -33.34 0.02 -33 -1 C-22.6542206 -4.85430997 -10.17090272 -4.1060311 0 0 Z " transform="translate(573,52)" style="fill: #979C6D;"/><path d="M0 0 C0.99 0.33 1.98 0.66 3 1 C0.98442478 3.76208457 -0.55524581 5.75050375 -3.5625 7.4375 C-6.74115732 9.47510084 -7.62726372 11.53203466 -9 15 C-9 15.99 -9 16.98 -9 18 C-8.28972656 18.04898438 -7.57945312 18.09796875 -6.84765625 18.1484375 C-5.92855469 18.22320312 -5.00945312 18.29796875 -4.0625 18.375 C-3.14597656 18.44460937 -2.22945313 18.51421875 -1.28515625 18.5859375 C-0.53105469 18.72257812 0.22304688 18.85921875 1 19 C1.33 19.66 1.66 20.32 2 21 C-2.95 21.33 -7.9 21.66 -13 22 C-13.66 20.02 -14.32 18.04 -15 16 C-14.34 15.01 -13.68 14.02 -13 13 C-12.34 13 -11.68 13 -11 13 C-10.76539063 12.43796875 -10.53078125 11.8759375 -10.2890625 11.296875 C-8.69337 8.45364109 -6.71075457 6.51901873 -4.375 4.25 C-3.55773437 3.45078125 -2.74046875 2.6515625 -1.8984375 1.828125 C-0.95871094 0.92320313 -0.95871094 0.92320313 0 0 Z " transform="translate(351,39)" style="fill: #95996A;"/><path d="M0 0 C0.33 0 0.66 0 1 0 C1.33 6.93 1.66 13.86 2 21 C2.66 21 3.32 21 4 21 C4.33 22.98 4.66 24.96 5 27 C5.66 27 6.32 27 7 27 C8.13009829 29.1095168 8.96817049 30.72944914 9.25 33.125 C9.4975 33.74375 9.745 34.3625 10 35 C11.99054876 35.69437747 13.99255385 36.35610218 16 37 C18.92762248 39.04589147 21.47658138 41.47658138 24 44 C23.01 44.495 23.01 44.495 22 45 C13.22541213 41.83241019 6.74119999 34.78699314 2.5625 26.625 C0.81489188 22.57054917 -0.12546647 19.69823628 -0.09765625 15.33203125 C-0.09443359 14.43935547 -0.09121094 13.54667969 -0.08789062 12.62695312 C-0.07951172 11.69818359 -0.07113281 10.76941406 -0.0625 9.8125 C-0.05798828 8.87212891 -0.05347656 7.93175781 -0.04882812 6.96289062 C-0.03704626 4.64186288 -0.02059558 2.32096356 0 0 Z " transform="translate(516,77)" style="fill: #959A6F;"/><path d="M0 0 C1.32 0 2.64 0 4 0 C5.625 2.375 5.625 2.375 7 5 C8.83475748 7.21784442 8.83475748 7.21784442 11.5 7.4375 C14 8 14 8 16 11 C17.99954746 11.04254356 20.00041636 11.04080783 22 11 C22.99 11.66 23.98 12.32 25 13 C27.0492094 13.45139459 27.0492094 13.45139459 29.1875 13.625 C30.445625 13.74875 31.70375 13.8725 33 14 C33.495 15.485 33.495 15.485 34 17 C9.44264492 13.72825207 9.44264492 13.72825207 1.27734375 3.93359375 C0 2 0 2 0 0 Z " transform="translate(394,80)" style="fill: #969A6C;"/><path d="M0 0 C0.33 0.66 0.66 1.32 1 2 C0.01 3.485 0.01 3.485 -1 5 C-1.33 9.62 -1.66 14.24 -2 19 C15.82 19 33.64 19 52 19 C52 19.33 52 19.66 52 20 C44.18547248 20.02526563 36.37095542 20.04283105 28.55639648 20.05493164 C25.89558519 20.05997383 23.23477668 20.06680736 20.57397461 20.07543945 C16.75894484 20.08751009 12.94395156 20.09322929 9.12890625 20.09765625 C7.33206139 20.10539818 7.33206139 20.10539818 5.49891663 20.11329651 C3.84731789 20.11340981 3.84731789 20.11340981 2.16235352 20.11352539 C1.18750504 20.115746 0.21265656 20.11796661 -0.79173279 20.12025452 C-3 20 -3 20 -4 19 C-4.17926852 16.75473532 -4.26811465 14.50197261 -4.3125 12.25 C-4.34988281 11.01765625 -4.38726562 9.7853125 -4.42578125 8.515625 C-3.93615048 4.47280214 -2.79191696 2.88553153 0 0 Z " transform="translate(168,104)" style="fill: #5C5958;"/><path d="M0 0 C3.43705705 -0.14505175 6.87333033 -0.23398014 10.3125 -0.3125 C11.28896484 -0.35439453 12.26542969 -0.39628906 13.27148438 -0.43945312 C15.9311881 -0.4851525 18.38041251 -0.46614867 21 0 C23.02734375 2.203125 23.02734375 2.203125 24 5 C24.39703125 5.83660156 24.7940625 6.67320313 25.203125 7.53515625 C25.54859375 8.36917969 25.8940625 9.20320313 26.25 10.0625 C26.78367187 11.31740234 26.78367187 11.31740234 27.328125 12.59765625 C28.05764245 15.20610527 27.90585069 16.48568366 27 19 C26.731875 18.030625 26.46375 17.06125 26.1875 16.0625 C25.795625 15.051875 25.40375 14.04125 25 13 C24.01 12.67 23.02 12.34 22 12 C22 10.02 22 8.04 22 6 C21.34 6 20.68 6 20 6 C19.67 5.01 19.34 4.02 19 3 C13.06 3 7.12 3 1 3 C0.67 2.01 0.34 1.02 0 0 Z " transform="translate(309,50)" style="fill: #93966A;"/><path d="M0 0 C3.87837838 10.38851351 3.87837838 10.38851351 3 15 C0.6875 16.9375 0.6875 16.9375 -2 18 C-2.99 17.67 -3.98 17.34 -5 17 C-4.360625 16.896875 -3.72125 16.79375 -3.0625 16.6875 C-2.381875 16.460625 -1.70125 16.23375 -1 16 C0.06671952 12.79984144 -0.05154528 11.11455706 -0.4375 7.8125 C-0.623125 6.224375 -0.80875 4.63625 -1 3 C-6.28 3 -11.56 3 -17 3 C-17.33 2.34 -17.66 1.68 -18 1 C-12.10576364 -0.57714261 -5.96441577 -1.73160458 0 0 Z " transform="translate(509,105)" style="fill: #909568;"/><path d="M0 0 C0.99 0 1.98 0 3 0 C3.91960707 13.40582753 3.91960707 13.40582753 -0.49609375 19.34375 C-2.83494625 21.91952522 -5.15695041 23.97827585 -8 26 C-8.66 26 -9.32 26 -10 26 C-8.63055898 23.05043472 -7.12169591 20.47531189 -5 18 C-4.34 18 -3.68 18 -3 18 C-3 16.35 -3 14.7 -3 13 C-2.34 13 -1.68 13 -1 13 C0.00496852 9.98509443 0.10335303 7.95818308 0.0625 4.8125 C0.05347656 3.91144531 0.04445313 3.01039062 0.03515625 2.08203125 C0.02355469 1.39496094 0.01195312 0.70789063 0 0 Z " transform="translate(451,95)" style="fill: #909668;"/><path d="M0 0 C-1.28132813 0.02578125 -2.56265625 0.0515625 -3.8828125 0.078125 C-23.83762433 0.36413945 -23.83762433 0.36413945 -41 9 C-40.6953125 7.12890625 -40.6953125 7.12890625 -40 5 C-30.80168886 -1.07088535 -9.80210765 -6.53473843 0 0 Z " transform="translate(132,51)" style="fill: #625E5C;"/><path d="M0 0 C1.8755183 3.12114555 2.21946497 4.88479301 1.4375 8.4375 C0.33669211 12.80475746 -1.44005653 15.15204522 -5 18 C-8.00313748 19.50156874 -10.79067522 19.09281204 -14.125 19.0625 C-15.40632813 19.05347656 -16.68765625 19.04445313 -18.0078125 19.03515625 C-19.48894531 19.01775391 -19.48894531 19.01775391 -21 19 C-21 18.67 -21 18.34 -21 18 C-20.28714844 17.97421875 -19.57429688 17.9484375 -18.83984375 17.921875 C-12.44263759 17.54303641 -8.22244347 16.77793783 -3 13 C-0.70366176 9.55549263 -0.45983515 7.06187717 0 3 C-2.89611544 3.14134727 -5.7918081 3.2879153 -8.6875 3.4375 C-9.50412109 3.47681641 -10.32074219 3.51613281 -11.16210938 3.55664062 C-15.19655811 3.76898003 -19.05747309 4.04447922 -23 5 C-23 4.34 -23 3.68 -23 3 C-19.606458 1.303229 -15.80873843 1.57324452 -12.0625 1.375 C-10.8259668 1.29765625 -10.8259668 1.29765625 -9.56445312 1.21875 C-8.77103516 1.17492187 -7.97761719 1.13109375 -7.16015625 1.0859375 C-6.43449463 1.0451709 -5.70883301 1.0044043 -4.96118164 0.96240234 C-3 1 -3 1 0 2 C0 1.34 0 0.68 0 0 Z " transform="translate(133,90)" style="fill: #5B5956;"/><path d="M0 0 C0.66 0.33 1.32 0.66 2 1 C0.42167114 9.1823891 -1.74291161 15.48174142 -7 22 C-7.67289063 22.84111328 -7.67289063 22.84111328 -8.359375 23.69921875 C-9.625 25.125 -9.625 25.125 -12 27 C-14.3125 26.8125 -14.3125 26.8125 -16 26 C-15.67 25.01 -15.34 24.02 -15 23 C-14.236875 22.7525 -13.47375 22.505 -12.6875 22.25 C-8.7402299 20.41406042 -7.92208722 17.84417443 -6 14 C-5.34 14 -4.68 14 -4 14 C-1.59009896 7.11175931 -1.59009896 7.11175931 0 0 Z " transform="translate(594,90)" style="fill: #929669;"/><path d="M0 0 C10.89 0 21.78 0 33 0 C32.67 1.32 32.34 2.64 32 4 C31.34 4 30.68 4 30 4 C30 3.34 30 2.68 30 2 C28.95356323 2.25124634 28.95356323 2.25124634 27.88598633 2.50756836 C24.76312861 3.04041702 21.98756248 3.01915302 18.82421875 2.87890625 C17.08881836 2.80639648 17.08881836 2.80639648 15.31835938 2.73242188 C13.52108398 2.64831055 13.52108398 2.64831055 11.6875 2.5625 C10.46998047 2.51029297 9.25246094 2.45808594 7.99804688 2.40429688 C4.99842021 2.27490121 1.99914994 2.13994552 -1 2 C-0.67 1.34 -0.34 0.68 0 0 Z " transform="translate(167,67)" style="fill: #666060;"/><path d="M0 0 C0.99 0.495 0.99 0.495 2 1 C2.39310414 3.32288812 2.50749695 5.61845176 2.65625 7.96875 C2.82640625 8.97421875 2.82640625 8.97421875 3 10 C3.66 10.33 4.32 10.66 5 11 C5.33333333 12.66666667 5.66666667 14.33333333 6 16 C6.66 16.33 7.32 16.66 8 17 C8.33 17.99 8.66 18.98 9 20 C10.33289654 21.50014391 10.33289654 21.50014391 12 23 C13.37195574 24.29355827 14.71182656 25.62298702 16 27 C16 27.66 16 28.32 16 29 C16.99 28.67 17.98 28.34 19 28 C18.67 28.99 18.34 29.98 18 31 C9.30637611 26.82706053 5.08220697 20.47157051 1.74609375 11.54296875 C0.61539393 7.68911753 0.25828729 4.00345296 0 0 Z " transform="translate(657,88)" style="fill: #8E9267;"/><path d="M0 0 C2.39189062 1.8719144 3.00772029 3.02646956 3.875 6 C4 9 4 9 2.9375 10.75 C0.42077769 12.37369182 -2.133676 13.17195084 -5 14 C-5 14.66 -5 15.32 -5 16 C-8.3 15.67 -11.6 15.34 -15 15 C-14.67 13.68 -14.34 12.36 -14 11 C-12.783125 11.226875 -11.56625 11.45375 -10.3125 11.6875 C-7.08158824 12.10568539 -6.1345775 12.06299372 -3.0625 10.625 C-1.12430473 9.16357731 -1.12430473 9.16357731 0 8 C0.07148199 6.64756083 0.08399454 5.29165633 0.0625 3.9375 C0.041875 2.638125 0.02125 1.33875 0 0 Z " transform="translate(337,118)" style="fill: #959869;"/><path d="M0 0 C1 2 1 2 0.4375 4.5 C-1 7 -1 7 -4.125 8.3125 C-5.548125 8.6528125 -5.548125 8.6528125 -7 9 C-7.33 10.98 -7.66 12.96 -8 15 C-8.99 14.67 -9.98 14.34 -11 14 C-11 15.98 -11 17.96 -11 20 C-11.99 20.33 -12.98 20.66 -14 21 C-13.11649369 13.11728785 -8.59580303 6.91711753 -2.5625 1.875 C-1.716875 1.25625 -0.87125 0.6375 0 0 Z " transform="translate(531,56)" style="fill: #95996B;"/><path d="M0 0 C0.98226562 0.47759766 0.98226562 0.47759766 1.984375 0.96484375 C5.73127867 2.25102182 9.32983838 2.41796167 13.25 2.5625 C20.87809917 2.87809917 20.87809917 2.87809917 22 4 C23.53202706 3.74804092 25.05257128 3.42403223 26.5625 3.0625 C27.38878906 2.86785156 28.21507813 2.67320313 29.06640625 2.47265625 C29.70449219 2.31667969 30.34257813 2.16070312 31 2 C30 4 30 4 27.25 5.125 C19.08964704 7.22385621 8.45851311 7.39907448 1 3 C0.67 2.01 0.34 1.02 0 0 Z " transform="translate(96,119)" style="fill: #535150;"/><path d="M0 0 C0.99 0.33 1.98 0.66 3 1 C3 2.32 3 3.64 3 5 C-6.24 5 -15.48 5 -25 5 C-25 4.34 -25 3.68 -25 3 C-16.42 3 -7.84 3 1 3 C0.67 2.01 0.34 1.02 0 0 Z " transform="translate(284,77)" style="fill: #585356;"/><path d="M0 0 C0.90105469 0.01804687 1.80210937 0.03609375 2.73046875 0.0546875 C3.41753906 0.07789062 4.10460937 0.10109375 4.8125 0.125 C1.8288065 3.54936208 -0.7123384 3.70281494 -5.1875 4.125 C-5.1875 4.785 -5.1875 5.445 -5.1875 6.125 C-5.8475 6.125 -6.5075 6.125 -7.1875 6.125 C-7.04654936 7.7504308 -6.89957913 9.37534051 -6.75 11 C-6.62818359 12.35738281 -6.62818359 12.35738281 -6.50390625 13.7421875 C-6.31760715 16.13610861 -6.31760715 16.13610861 -5.1875 18.125 C-5.8475 19.115 -6.5075 20.105 -7.1875 21.125 C-7.8475 20.795 -8.5075 20.465 -9.1875 20.125 C-9.10079863 17.16519468 -8.99396977 14.20853131 -8.875 11.25 C-8.85244141 10.40824219 -8.82988281 9.56648438 -8.80664062 8.69921875 C-8.77119141 7.89355469 -8.73574219 7.08789062 -8.69921875 6.2578125 C-8.67303467 5.51418457 -8.64685059 4.77055664 -8.61987305 4.00439453 C-7.60307321 -0.41532604 -3.71255042 -0.09642988 0 0 Z " transform="translate(476.1875,30.875)" style="fill: #959867;"/><path d="M0 0 C-0.99 0.99 -1.98 1.98 -3 3 C-2.34 3.66 -1.68 4.32 -1 5 C-3.31 5.66 -5.62 6.32 -8 7 C-8.66 6.34 -9.32 5.68 -10 5 C-11.175625 5.5259375 -11.175625 5.5259375 -12.375 6.0625 C-13.674375 6.5265625 -13.674375 6.5265625 -15 7 C-15.66 6.67 -16.32 6.34 -17 6 C-11.31032436 1.12313516 -7.52676821 -0.29516738 0 0 Z " transform="translate(650,50)" style="fill: #909668;"/><path d="M0 0 C1.65 0.33 3.3 0.66 5 1 C4.34 2.65 3.68 4.3 3 6 C2.67 5.34 2.34 4.68 2 4 C1.71125 4.598125 1.4225 5.19625 1.125 5.8125 C0 8 0 8 -2 11 C-3.01559401 12.99212671 -4.01789629 14.9911515 -5 17 C-5.66 16.67 -6.32 16.34 -7 16 C-6.28028381 12.24654344 -4.66887798 9.13908031 -2.9375 5.75 C-2.38964844 4.67234375 -1.84179688 3.5946875 -1.27734375 2.484375 C-0.64505859 1.25460938 -0.64505859 1.25460938 0 0 Z " transform="translate(316,127)" style="fill: #92926A;"/><path d="M0 0 C0.66 0 1.32 0 2 0 C1.8864371 1.64666203 1.75882619 3.29236082 1.625 4.9375 C1.55539062 5.85402344 1.48578125 6.77054687 1.4140625 7.71484375 C1.27742187 8.46894531 1.14078125 9.22304687 1 10 C0.01 10.495 0.01 10.495 -1 11 C-1.91031272 13.34386809 -1.91031272 13.34386809 -2.625 16.0625 C-2.88539063 16.98160156 -3.14578125 17.90070313 -3.4140625 18.84765625 C-3.60742188 19.55792969 -3.80078125 20.26820312 -4 21 C-5.78832597 18.34677456 -6.01638619 17.14261391 -5.64453125 13.90625 C-5.36996094 12.7821875 -5.09539063 11.658125 -4.8125 10.5 C-4.55082031 9.3759375 -4.28914062 8.251875 -4.01953125 7.09375 C-3.04176741 4.12674248 -2.13943009 2.2555232 0 0 Z " transform="translate(663,66)" style="fill: #919567;"/><path d="M0 0 C-0.66 0 -1.32 0 -2 0 C-2.20625 0.53625 -2.4125 1.0725 -2.625 1.625 C-4.56603091 4.97768975 -6.8388864 7.72934094 -10 10 C-13.375 10.375 -13.375 10.375 -16 10 C-6.63534676 -2.21178225 -6.63534676 -2.21178225 0 0 Z " transform="translate(682,53)" style="fill: #9D9F6E;"/><path d="M0 0 C1.53448591 3.06897182 0.29336587 5.09278043 -0.6875 8.3125 C-1.18830078 10.00826172 -1.18830078 10.00826172 -1.69921875 11.73828125 C-3.04440418 15.11134382 -4.62653179 17.28010842 -7 20 C-7.66 20.99 -8.32 21.98 -9 23 C-8.43432472 17.62259304 -7.11769442 13.11266608 -5.0625 8.125 C-4.79759766 7.44953125 -4.53269531 6.7740625 -4.25976562 6.078125 C-2.25707009 1.12853505 -2.25707009 1.12853505 0 0 Z " transform="translate(362,70)" style="fill: #959963;"/><path d="M0 0 C3.81583379 0.65179251 6.02881405 1.46898975 9 4 C6.33333333 4 3.66666667 4 1 4 C0.5978125 4.8353125 0.5978125 4.8353125 0.1875 5.6875 C-1 8 -1 8 -2.625 10.5 C-4.32127917 13.10861426 -4.32127917 13.10861426 -4 17 C-4.99 16.67 -5.98 16.34 -7 16 C-6.40165275 11.85701333 -4.99335715 8.81805623 -2.9375 5.1875 C-2.11572266 3.72376953 -2.11572266 3.72376953 -1.27734375 2.23046875 C-0.85582031 1.49441406 -0.43429687 0.75835937 0 0 Z " transform="translate(397,100)" style="fill: #8F916B;"/><path d="M0 0 C2.56018571 0.99622289 3.7772565 1.62293748 5.1953125 4.0234375 C5.65550781 5.18746094 5.65550781 5.18746094 6.125 6.375 C7.49338946 9.77237829 7.49338946 9.77237829 9.109375 13.0546875 C10.46034608 16.00549275 10.12280434 18.80708712 10 22 C6.88776996 18.34193269 5.18449804 14.24429815 3.3125 9.875 C2.99216797 9.14667969 2.67183594 8.41835937 2.34179688 7.66796875 C0 2.26535848 0 2.26535848 0 0 Z " transform="translate(323,86)" style="fill: #929769;"/><path d="M0 0 C-4.33471946 4.33471946 -10.49269218 4.1066141 -16.28076172 4.13623047 C-19.52156844 4.11983035 -22.75990033 4.07077888 -26 4 C-26 3.01 -26 2.02 -26 1 C-24.86820313 1.01160156 -23.73640625 1.02320312 -22.5703125 1.03515625 C-21.08854331 1.04453454 -19.60677235 1.0536347 -18.125 1.0625 C-17.37863281 1.07087891 -16.63226562 1.07925781 -15.86328125 1.08789062 C-10.34750939 1.11273644 -5.61808403 -0.09061426 0 0 Z " transform="translate(573,121)" style="fill: #95986C;"/><path d="M0 0 C3.79152334 -0.0867982 7.58279296 -0.14032207 11.375 -0.1875 C12.99535156 -0.22520508 12.99535156 -0.22520508 14.6484375 -0.26367188 C15.6796875 -0.27333984 16.7109375 -0.28300781 17.7734375 -0.29296875 C18.72653809 -0.3086792 19.67963867 -0.32438965 20.66162109 -0.34057617 C21.81911865 -0.17199097 21.81911865 -0.17199097 23 0 C23.66 0.99 24.32 1.98 25 3 C22.33305052 3.05455124 19.66724502 3.09393392 17 3.125 C15.88431641 3.15013672 15.88431641 3.15013672 14.74609375 3.17578125 C9.49451557 3.22144715 5.0483054 2.45712451 0 1 C0 0.67 0 0.34 0 0 Z " transform="translate(405,122)" style="fill: #93986D;"/><path d="M0 0 C1.2077558 3.62326739 0.54311128 4.64146369 -1 8 C2.24509304 10.03977277 5.40608886 11.66511872 9 13 C9 13.66 9 14.32 9 15 C4.45515151 14.45894661 0.86133967 13.51436071 -3 11 C-4.0625 8.625 -4.0625 8.625 -4 6 C-2.8584081 3.7168162 -1.80987317 1.80987317 0 0 Z " transform="translate(396,107)" style="fill: #959967;"/><path d="M0 0 C0.66 0 1.32 0 2 0 C2.02683987 2.97922593 2.04676037 5.95821295 2.0625 8.9375 C2.07087891 9.78763672 2.07925781 10.63777344 2.08789062 11.51367188 C2.09111328 12.32255859 2.09433594 13.13144531 2.09765625 13.96484375 C2.10289307 14.7137085 2.10812988 15.46257324 2.11352539 16.23413086 C2 18 2 18 1 19 C-0.99958364 19.04080783 -3.00045254 19.04254356 -5 19 C-4.67 18.01 -4.34 17.02 -4 16 C-2.68 16 -1.36 16 0 16 C0 10.72 0 5.44 0 0 Z " transform="translate(652,51)" style="fill: #92966A;"/><path d="M0 0 C0.33 0.66 0.66 1.32 1 2 C0.67 2.66 0.34 3.32 0 4 C0.85464844 3.98839844 1.70929688 3.97679687 2.58984375 3.96484375 C3.69457031 3.95582031 4.79929687 3.94679687 5.9375 3.9375 C7.03964844 3.92589844 8.14179688 3.91429687 9.27734375 3.90234375 C12 4 12 4 13 5 C13.04063832 6.66617115 13.042721 8.33388095 13 10 C12.46890625 9.51917969 11.9378125 9.03835937 11.390625 8.54296875 C8.40534598 6.61619553 6.27649984 6.5041576 2.75 6.3125 C1.67234375 6.24675781 0.5946875 6.18101563 -0.515625 6.11328125 C-1.33546875 6.07589844 -2.1553125 6.03851563 -3 6 C-3 4.68 -3 3.36 -3 2 C-2.01 1.34 -1.02 0.68 0 0 Z " transform="translate(351,48)" style="fill: #939764;"/><path d="M0 0 C1.18613892 0.00785522 1.18613892 0.00785522 2.39624023 0.01586914 C3.67724609 0.02070312 3.67724609 0.02070312 4.98413086 0.02563477 C5.88196289 0.03401367 6.77979492 0.04239258 7.70483398 0.05102539 C8.6065332 0.05553711 9.50823242 0.06004883 10.43725586 0.06469727 C12.67234712 0.07652315 14.90730835 0.09300319 17.14233398 0.11352539 C17.47233398 1.10352539 17.80233398 2.09352539 18.14233398 3.11352539 C13.52233398 3.11352539 8.90233398 3.11352539 4.14233398 3.11352539 C4.14233398 2.45352539 4.14233398 1.79352539 4.14233398 1.11352539 C3.15233398 1.77352539 2.16233398 2.43352539 1.14233398 3.11352539 C0.15233398 3.11352539 -0.83766602 3.11352539 -1.85766602 3.11352539 C-2.18766602 3.77352539 -2.51766602 4.43352539 -2.85766602 5.11352539 C-2.85766602 0.17463723 -2.85766602 0.17463723 0 0 Z " transform="translate(370.857666015625,49.886474609375)" style="fill: #929468;"/><path d="M0 0 C0 0.99 0 1.98 0 3 C-0.99 3 -1.98 3 -3 3 C-3.28875 3.94875 -3.5775 4.8975 -3.875 5.875 C-5 9 -5 9 -7 11 C-7.69748583 12.31747324 -8.36959957 13.64914193 -9 15 C-9.66 15 -10.32 15 -11 15 C-10.35753223 10.02087479 -8.39982029 5.383068 -6 1 C-4 0 -4 0 0 0 Z " transform="translate(373,53)" style="fill: #9B9D6F;"/><path d="M0 0 C2 2 2 2 2.22705078 4.24658203 C2.21657715 5.15778809 2.20610352 6.06899414 2.1953125 7.0078125 C2.18886719 7.99394531 2.18242188 8.98007813 2.17578125 9.99609375 C2.15902344 11.02863281 2.14226563 12.06117187 2.125 13.125 C2.11597656 14.16527344 2.10695313 15.20554687 2.09765625 16.27734375 C2.07403747 18.85179092 2.04110149 21.42578212 2 24 C1.01 23.34 0.02 22.68 -1 22 C-1.21704102 20.15234375 -1.21704102 20.15234375 -1.00390625 17.9375 C-0.94009766 17.14085938 -0.87628906 16.34421875 -0.81054688 15.5234375 C-0.72869141 14.69070312 -0.64683594 13.85796875 -0.5625 13 C-0.4084433 11.35503095 -0.26346494 9.70917866 -0.12890625 8.0625 C-0.05744385 7.33160156 0.01401855 6.60070312 0.08764648 5.84765625 C0.19565653 3.7471182 0.19565653 3.7471182 -2 2 C-1.34 2 -0.68 2 0 2 C0 1.34 0 0.68 0 0 Z " transform="translate(628,80)" style="fill: #929267;"/><path d="M0 0 C2.97 0 5.94 0 9 0 C9 0.33 9 0.66 9 1 C14.61 1.33 20.22 1.66 26 2 C26 2.33 26 2.66 26 3 C16.1 3 6.2 3 -4 3 C-2.68 2.67 -1.36 2.34 0 2 C0 1.34 0 0.68 0 0 Z " transform="translate(688,92)" style="fill: #9A9C71;"/><path d="M0 0 C0.33 0 0.66 0 1 0 C0.835 1.11375 0.67 2.2275 0.5 3.375 C-0.52878204 11.95322671 -0.27712992 18.92421554 3 27 C0.02495206 25.3141395 -0.94821445 24.12083295 -2.3125 20.9375 C-3.5817956 13.6678979 -2.26480227 6.94539363 0 0 Z " transform="translate(539,74)" style="fill: #8E9369;"/><path d="M0 0 C2.64 0 5.28 0 8 0 C8 0.66 8 1.32 8 2 C6.35 2 4.7 2 3 2 C1.78306124 4.43387753 1.68040104 6.41838846 1.4375 9.125 C1.31181641 10.49011719 1.31181641 10.49011719 1.18359375 11.8828125 C1.12300781 12.58148438 1.06242187 13.28015625 1 14 C3.97 14.33 6.94 14.66 10 15 C10 15.33 10 15.66 10 16 C6.7 16 3.4 16 0 16 C-0.19441368 13.7089095 -0.38033135 11.41709663 -0.5625 9.125 C-0.71912109 7.21074219 -0.71912109 7.21074219 -0.87890625 5.2578125 C-1 2 -1 2 0 0 Z " transform="translate(458,52)" style="fill: #919669;"/><path d="M0 0 C0 5.61 0 11.22 0 17 C-3 14 -3 14 -3.328125 10.8984375 C-3.30234375 9.73570313 -3.2765625 8.57296875 -3.25 7.375 C-3.23453125 6.20710938 -3.2190625 5.03921875 -3.203125 3.8359375 C-2.92837466 0 -2.92837466 0 0 0 Z " transform="translate(630,105)" style="fill: #929567;"/><path d="M0 0 C1.7953052 0.09064244 3.58747875 0.2474879 5.375 0.4375 C8.28338616 0.74061676 11.07425015 1 14 1 C14 1.66 14 2.32 14 3 C12.58398286 3.48108275 11.16715563 3.95978141 9.75 4.4375 C8.96109375 4.70433594 8.1721875 4.97117187 7.359375 5.24609375 C5.25178012 5.91954708 3.15246027 6.49150595 1 7 C0.34 5.02 -0.32 3.04 -1 1 C-0.67 0.67 -0.34 0.34 0 0 Z " transform="translate(547,104)" style="fill: #939C5F;"/><path d="M0 0 C1.08667969 0.01804687 2.17335938 0.03609375 3.29296875 0.0546875 C4.54013672 0.08949219 4.54013672 0.08949219 5.8125 0.125 C6.1425 1.115 6.4725 2.105 6.8125 3.125 C6.1525 3.125 5.4925 3.125 4.8125 3.125 C4.1525 4.445 3.4925 5.765 2.8125 7.125 C2.8125 6.465 2.8125 5.805 2.8125 5.125 C2.24015625 4.98191406 1.6678125 4.83882813 1.078125 4.69140625 C-4.0546875 3.40820312 -4.0546875 3.40820312 -9.1875 2.125 C-5.66070901 -0.22619399 -4.15870515 -0.08943452 0 0 Z " transform="translate(77.1875,102.875)" style="fill: #4F4D4C;"/><path d="M0 0 C2.13265053 3.1989758 3.65963865 6.49131134 5.1875 10 C5.47302734 10.6290625 5.75855469 11.258125 6.05273438 11.90625 C8.11727722 16.64816835 8.11727722 16.64816835 7 20 C2.71563318 15.5678964 1.483397 10.81075893 0 5 C-0.21269531 4.25878906 -0.42539062 3.51757812 -0.64453125 2.75390625 C-0.82048828 1.88572266 -0.82048828 1.88572266 -1 1 C-0.67 0.67 -0.34 0.34 0 0 Z " transform="translate(338,70)" style="fill: #8C9163;"/><path d="M0 0 C6.93815941 2.20759617 12.12117896 4.59836854 16 11 C16 11.66 16 12.32 16 13 C13.19878575 11.89952297 12.01459083 11.01962216 10.1875 8.5625 C8.04684948 6.05488082 7.23329934 5.50159403 4.3125 4.375 C3.219375 3.92125 2.12625 3.4675 1 3 C0.67 2.01 0.34 1.02 0 0 Z " transform="translate(437,81)" style="fill: #8E9268;"/><path d="M0 0 C-0.33 0.99 -0.66 1.98 -1 3 C-1.04427173 4.58271427 -1.03932534 6.1671551 -1 7.75 C-0.95057706 11.96330529 -1.27885937 15.85344139 -2 20 C-2.33 20 -2.66 20 -3 20 C-3 14.06 -3 8.12 -3 2 C-5.97 2 -8.94 2 -12 2 C-12 1.67 -12 1.34 -12 1 C-10.56274129 0.83126522 -9.12518162 0.66509263 -7.6875 0.5 C-6.88699219 0.4071875 -6.08648437 0.314375 -5.26171875 0.21875 C-3 0 -3 0 0 0 Z " transform="translate(471,67)" style="fill: #9FA170;"/><path d="M0 0 C0.9200425 3.06212618 0.99980368 5.57089965 0.8125 8.75 C0.74146316 14.10144227 2.30245112 17.49095844 5 22 C5.67597415 23.32863884 6.34515838 24.6608194 7 26 C3.17679444 24.36148333 1.55123846 22.4530245 -0.24609375 18.6328125 C-1.78990989 13.24145459 -2.56689287 5.13378574 0 0 Z " transform="translate(88,93)" style="fill: #5C5A57;"/><path d="M0 0 C0.66 0 1.32 0 2 0 C2.8723412 2.99480917 3.10829766 5.63575911 3.0625 8.75 C3.05347656 9.54921875 3.04445313 10.3484375 3.03515625 11.171875 C3.02355469 11.77515625 3.01195312 12.3784375 3 13 C0.29120665 14.35439668 -2.00933268 14.06501451 -5 14 C-4.01 13.34 -3.02 12.68 -2 12 C-1.34 11.34 -0.68 10.68 0 10 C-0.66 9.01 -1.32 8.02 -2 7 C-1.34 6.67 -0.68 6.34 0 6 C0 4.02 0 2.04 0 0 Z " transform="translate(506,55)" style="fill: #8E9266;"/><path d="M0 0 C0.66 0.33 1.32 0.66 2 1 C3.54953925 7.73408788 3.34642284 12.97643889 0 19 C-0.33 19 -0.66 19 -1 19 C-0.67 12.73 -0.34 6.46 0 0 Z " transform="translate(573,78)" style="fill: #8E9165;"/><path d="M0 0 C3.63 0 7.26 0 11 0 C11 0.33 11 0.66 11 1 C8.69 1.33 6.38 1.66 4 2 C4.66 2.33 5.32 2.66 6 3 C5.67 3.99 5.34 4.98 5 6 C2.69 6 0.38 6 -2 6 C-2 5.01 -2 4.02 -2 3 C-1.34 3 -0.68 3 0 3 C0 2.01 0 1.02 0 0 Z " transform="translate(339,30)" style="fill: #A0A668;"/><path d="M0 0 C0.7425 0.763125 1.485 1.52625 2.25 2.3125 C5.40981807 5.44071792 5.40981807 5.44071792 9 8 C9.99 7.67 10.98 7.34 12 7 C12.66 8.65 13.32 10.3 14 12 C10.66666667 11.33333333 7.33333333 10.66666667 4 10 C3.8453125 9.13375 3.8453125 9.13375 3.6875 8.25 C2.90235534 5.68043567 1.622522 4.11633305 0 2 C0 1.34 0 0.68 0 0 Z " transform="translate(90,110)" style="fill: #393837;"/><path d="M0 0 C1.32 0.33 2.64 0.66 4 1 C4.13277344 1.71027344 4.26554687 2.42054687 4.40234375 3.15234375 C4.57894531 4.07144531 4.75554687 4.99054688 4.9375 5.9375 C5.19853516 7.31228516 5.19853516 7.31228516 5.46484375 8.71484375 C5.77714988 10.95289844 5.77714988 10.95289844 7 12 C7.04063832 13.66617115 7.042721 15.33388095 7 17 C5 16 5 16 4.21875 14.07421875 C3.9815625 13.28660156 3.744375 12.49898437 3.5 11.6875 C2.77066347 9.28940978 2.06313713 7.12153897 0.90625 4.89453125 C0 3 0 3 0 0 Z " transform="translate(313,62)" style="fill: #9EA277;"/><path d="M0 0 C1.8871875 0.0309375 1.8871875 0.0309375 3.8125 0.0625 C3.8125 0.7225 3.8125 1.3825 3.8125 2.0625 C0.0625 3.1875 0.0625 3.1875 -2.1875 2.0625 C-2.1875 2.7225 -2.1875 3.3825 -2.1875 4.0625 C-4.4975 4.3925 -6.8075 4.7225 -9.1875 5.0625 C-9.1875 4.4025 -9.1875 3.7425 -9.1875 3.0625 C-8.5275 3.0625 -7.8675 3.0625 -7.1875 3.0625 C-7.1875 2.4025 -7.1875 1.7425 -7.1875 1.0625 C-4.43671116 0.14557039 -2.82801087 -0.04636083 0 0 Z " transform="translate(689.1875,49.9375)" style="fill: #959A66;"/><path d="M0 0 C0.66 0 1.32 0 2 0 C1.69320312 0.68449219 1.38640625 1.36898437 1.0703125 2.07421875 C-0.12027285 5.32877506 -0.64013204 8.38379086 -1.125 11.8125 C-1.29257813 12.97394531 -1.46015625 14.13539062 -1.6328125 15.33203125 C-1.75398437 16.21246094 -1.87515625 17.09289062 -2 18 C-2.99 18 -3.98 18 -5 18 C-3.25740319 5.33029613 -3.25740319 5.33029613 0 0 Z " transform="translate(236,67)" style="fill: #524F4C;"/><path d="M0 0 C6.45010247 0.26875427 10.29672276 2.63413178 15 7 C16.03206204 8.30867327 17.04165044 9.63642239 18 11 C17.67 11.66 17.34 12.32 17 13 C15.5 11.625 15.5 11.625 14 10 C14 9.34 14 8.68 14 8 C13.34 8 12.68 8 12 8 C11.3503125 7.319375 11.3503125 7.319375 10.6875 6.625 C8.64371183 4.65690769 6.65469676 3.93273129 4 3 C4 2.34 4 1.68 4 1 C2.68 0.67 1.36 0.34 0 0 Z " transform="translate(133,51)" style="fill: #555250;"/><path d="M0 0 C-0.94359375 0.32871094 -0.94359375 0.32871094 -1.90625 0.6640625 C-8.08585663 2.95349508 -12.95291375 5.77059811 -18 10 C-18.66 9.67 -19.32 9.34 -20 9 C-14.80696164 3.99063824 -7.63502746 -2.63692822 0 0 Z " transform="translate(262,51)" style="fill: #555251;"/><path d="M0 0 C1.25 7.625 1.25 7.625 -1 11 C-4.625 11.1875 -4.625 11.1875 -8 11 C-6.75 9.5 -6.75 9.5 -5 8 C-3.68 8 -2.36 8 -1 8 C-1.66 5.69 -2.32 3.38 -3 1 C-2 0 -2 0 0 0 Z " transform="translate(712,72)" style="fill: #919368;"/><path d="M0 0 C0.33 0.66 0.66 1.32 1 2 C1.66 2.33 2.32 2.66 3 3 C-0.42692662 6.15277249 -3.4134316 6.66643139 -8 7 C-8.99 6.67 -9.98 6.34 -11 6 C-7.62214778 3.78026854 -4.93534461 2.7652059 -1 2 C-0.67 1.34 -0.34 0.68 0 0 Z " transform="translate(262,49)" style="fill: #3C3A39;"/><path d="M0 0 C5.56890517 0.47986031 10.67067568 1.29915181 16 3 C16 3.66 16 4.32 16 5 C10.01488629 4.65697965 5.24882694 4.17692157 0 1 C0 0.67 0 0.34 0 0 Z " transform="translate(418,77)" style="fill: #909168;"/><path d="M0 0 C2.70108504 0.090916 5.36930311 0.23740766 8.0625 0.4375 C9.20041992 0.51581055 9.20041992 0.51581055 10.36132812 0.59570312 C12.24121722 0.72575835 14.12065685 0.86228038 16 1 C16 1.33 16 1.66 16 2 C11.05 2.33 6.1 2.66 1 3 C1 4.65 1 6.3 1 8 C0.67 8 0.34 8 0 8 C-0.38063221 5.6739143 -0.71269945 3.33944736 -1 1 C-0.67 0.67 -0.34 0.34 0 0 Z " transform="translate(15,28)" style="fill: #4F4B4A;"/><path d="M0 0 C1 3 1 3 0 5 C0.66 5.33 1.32 5.66 2 6 C1.2575 6.28875 0.515 6.5775 -0.25 6.875 C-2.93796893 7.90309802 -2.93796893 7.90309802 -5.0625 9.1875 C-7.4523967 10.18971474 -8.60375166 9.85580298 -11 9 C-9.39125 8.443125 -9.39125 8.443125 -7.75 7.875 C-3.59695744 6.13122757 -2.1541217 3.87741907 0 0 Z M-1 7 C-0.67 7.66 -0.34 8.32 0 9 C-0.66 8.67 -1.32 8.34 -2 8 C-1.67 7.67 -1.34 7.34 -1 7 Z " transform="translate(134,100)" style="fill: #3A3A3A;"/><path d="M0 0 C9.59453303 0.59453303 9.59453303 0.59453303 13 4 C9.57056481 5.18771723 7.62215325 4.80226223 4.25 3.5625 C3.45078125 3.27503906 2.6515625 2.98757812 1.828125 2.69140625 C1.22484375 2.46324219 0.6215625 2.23507813 0 2 C0 1.34 0 0.68 0 0 Z " transform="translate(562,50)" style="fill: #91966B;"/><path d="M0 0 C5.41139241 -0.36075949 5.41139241 -0.36075949 7.9375 1.1875 C9 3 9 3 8.875 5.5625 C8 8 8 8 5 10 C4.67 9.01 4.34 8.02 4 7 C4.66 7 5.32 7 6 7 C6 5.68 6 4.36 6 3 C4.02 2.34 2.04 1.68 0 1 C0 0.67 0 0.34 0 0 Z " transform="translate(356,30)" style="fill: #999E75;"/><path d="M0 0 C-0.61875 0.0825 -1.2375 0.165 -1.875 0.25 C-4.15354435 0.79278299 -4.15354435 0.79278299 -5.0625 2.875 C-5.5265625 3.926875 -5.5265625 3.926875 -6 5 C-7.5 6.75 -7.5 6.75 -9 8 C-9.66 8 -10.32 8 -11 8 C-10.67 6.68 -10.34 5.36 -10 4 C-9.34 4 -8.68 4 -8 4 C-8 3.34 -8 2.68 -8 2 C-7.34 2 -6.68 2 -6 2 C-6 1.34 -6 0.68 -6 0 C-3.50907189 -1.24546405 -2.58919267 -0.7767578 0 0 Z " transform="translate(642,70)" style="fill: #929769;"/><path d="M0 0 C1.32 0 2.64 0 4 0 C5.76165803 5.28497409 5.76165803 5.28497409 6 8 C4.125 10.5 4.125 10.5 2 12 C1 10 1 10 1.5625 6.5625 C2.40507508 2.90129691 2.40507508 2.90129691 0 0 Z " transform="translate(429,97)" style="fill: #919667;"/><path d="M0 0 C0.99 0.33 1.98 0.66 3 1 C3 3.64 3 6.28 3 9 C1.02 9.99 1.02 9.99 -1 11 C-0.67 7.37 -0.34 3.74 0 0 Z " transform="translate(81,111)" style="fill: #393839;"/><path d="M0 0 C3.3907519 1.45317939 5.41300312 3.41300312 8 6 C8.99 6.33 9.98 6.66 11 7 C11 7.66 11 8.32 11 9 C8.69 8.34 6.38 7.68 4 7 C3.896875 6.360625 3.79375 5.72125 3.6875 5.0625 C3.460625 4.381875 3.23375 3.70125 3 3 C2.01 2.67 1.02 2.34 0 2 C0 1.34 0 0.68 0 0 Z " transform="translate(679,98)" style="fill: #94986E;"/><path d="M0 0 C1.5 1.3125 1.5 1.3125 3 3 C3 3.99 3 4.98 3 6 C3.66 6 4.32 6 5 6 C5 5.01 5 4.02 5 3 C5.99 3.33 6.98 3.66 8 4 C7.01 4.495 7.01 4.495 6 5 C5.34786708 7.02463255 5.34786708 7.02463255 5 9 C3.0625 8.4375 3.0625 8.4375 1 7 C0.25 3.375 0.25 3.375 0 0 Z " transform="translate(346,91)" style="fill: #8D9164;"/><path d="M0 0 C3.86379545 3.00517424 6.90983192 5.45081065 9 10 C8.67 10.66 8.34 11.32 8 12 C5.47411298 9.63707344 4.11179163 8.33537489 3 5 C2.01 4.34 1.02 3.68 0 3 C0 2.01 0 1.02 0 0 Z " transform="translate(582,58)" style="fill: #999C73;"/><path d="M0 0 C0.625 1.875 0.625 1.875 1 4 C0.34 4.66 -0.32 5.32 -1 6 C-1 4.68 -1 3.36 -1 2 C-4.96 2 -8.92 2 -13 2 C-13 1.67 -13 1.34 -13 1 C-8.59085217 -0.10228696 -4.51617599 -0.07654536 0 0 Z " transform="translate(509,53)" style="fill: #9C9E55;"/><path d="M0 0 C3.3 0.99 6.6 1.98 10 3 C9.67 3.66 9.34 4.32 9 5 C6.69 5 4.38 5 2 5 C1.67 4.01 1.34 3.02 1 2 C0.34 1.67 -0.32 1.34 -1 1 C-0.67 0.67 -0.34 0.34 0 0 Z " transform="translate(408,104)" style="fill: #939969;"/><path d="M0 0 C1.81325551 0.11351517 3.62563357 0.24112961 5.4375 0.375 C6.95150391 0.47941406 6.95150391 0.47941406 8.49609375 0.5859375 C9.73552734 0.79089844 9.73552734 0.79089844 11 1 C11.33 1.66 11.66 2.32 12 3 C7.71 3 3.42 3 -1 3 C-0.67 2.01 -0.34 1.02 0 0 Z " transform="translate(341,57)" style="fill: #939763;"/><path d="M0 0 C4.59306496 1.4859916 7.43569245 3.85014682 11 7 C7.72572803 7 5.15680299 6.84181413 2 6 C2.33 5.01 2.66 4.02 3 3 C2.01 2.01 1.02 1.02 0 0 Z " transform="translate(287,53)" style="fill: #52504F;"/><path d="M0 0 C-0.1875 2.375 -0.1875 2.375 -1 5 C-3.375 6.375 -3.375 6.375 -6 7 C-6.99 6.67 -7.98 6.34 -9 6 C-7.8803014 4.99406757 -6.7540588 3.9954151 -5.625 3 C-4.68527344 2.1646875 -4.68527344 2.1646875 -3.7265625 1.3125 C-2 0 -2 0 0 0 Z " transform="translate(572,98)" style="fill: #8F926A;"/><path d="M0 0 C1.77706209 2.66559313 2.87548273 5.0280615 4 8 C0.75791433 7.64950425 -0.61527704 7.43778819 -2.8125 4.9375 C-3.4003125 3.9784375 -3.4003125 3.9784375 -4 3 C-3.01 3 -2.02 3 -1 3 C-0.67 2.01 -0.34 1.02 0 0 Z " transform="translate(246,110)" style="fill: #4B4A48;"/><path d="M0 0 C2.69082872 0.17635452 5.32851446 0.61835921 8 1 C8 1.33 8 1.66 8 2 C5.69 2 3.38 2 1 2 C1 3.65 1 5.3 1 7 C0.01 7.495 0.01 7.495 -1 8 C-1.04241723 5.66705225 -1.04092937 3.33297433 -1 1 C-0.67 0.67 -0.34 0.34 0 0 Z " transform="translate(490,67)" style="fill: #9BA070;"/><path d="M0 0 C2.02045442 0.60183749 4.02111039 1.27306096 6 2 C6.33 2.66 6.66 3.32 7 4 C5.02 4.99 5.02 4.99 3 6 C2.01 5.34 1.02 4.68 0 4 C0 2.68 0 1.36 0 0 Z " transform="translate(260,105)" style="fill: #3C3A3D;"/><path d="M0 0 C0.66 0 1.32 0 2 0 C2.125 5.75 2.125 5.75 1 8 C-0.32 7.67 -1.64 7.34 -3 7 C-2.67 6.01 -2.34 5.02 -2 4 C-1.34 4 -0.68 4 0 4 C0 2.68 0 1.36 0 0 Z " transform="translate(627,53)" style="fill: #9BA171;"/><path d="M0 0 C-0.33 1.32 -0.66 2.64 -1 4 C-3.31 4.33 -5.62 4.66 -8 5 C-8 4.01 -8 3.02 -8 2 C-2.25 0 -2.25 0 0 0 Z " transform="translate(420,107)" style="fill: #A1A967;"/><path d="M0 0 C3.3 0 6.6 0 10 0 C10 0.66 10 1.32 10 2 C7.36 2.33 4.72 2.66 2 3 C1.34 2.01 0.68 1.02 0 0 Z " transform="translate(678,92)" style="fill: #929863;"/><path d="M0 0 C0.99 0 1.98 0 3 0 C3 1.65 3 3.3 3 5 C3.66 5.33 4.32 5.66 5 6 C4.34 6 3.68 6 3 6 C3 6.66 3 7.32 3 8 C2.01 7.67 1.02 7.34 0 7 C0 4.69 0 2.38 0 0 Z " transform="translate(231,85)" style="fill: #3C3B38;"/><path d="M0 0 C0.66 0 1.32 0 2 0 C3.0257259 4.41062136 3.03684712 6.92630576 1 11 C0.67 11 0.34 11 0 11 C0 7.37 0 3.74 0 0 Z " transform="translate(393,68)" style="fill: #8E9568;"/><path d="M0 0 C1.32 0 2.64 0 4 0 C4 1.65 4 3.3 4 5 C3.443125 4.79375 2.88625 4.5875 2.3125 4.375 C-0.659538 3.89304789 -2.31979941 4.73434972 -5 6 C-4.67 5.01 -4.34 4.02 -4 3 C-1.9375 2.3125 -1.9375 2.3125 0 2 C0 1.34 0 0.68 0 0 Z " transform="translate(633,58)" style="fill: #A2A96A;"/><path d="M0 0 C6.27 0.33 12.54 0.66 19 1 C19 1.33 19 1.66 19 2 C13.06 2.33 7.12 2.66 1 3 C0.67 2.01 0.34 1.02 0 0 Z " transform="translate(309,50)" style="fill: #8A8E60;"/><path d="M0 0 C3.63 0 7.26 0 11 0 C11 0.66 11 1.32 11 2 C7.7 2.33 4.4 2.66 1 3 C0.67 2.01 0.34 1.02 0 0 Z " transform="translate(550,105)" style="fill: #8F9466;"/><path d="M0 0 C0.66 0 1.32 0 2 0 C2.33 1.98 2.66 3.96 3 6 C3.66 6 4.32 6 5 6 C4.67 6.99 4.34 7.98 4 9 C3.34 9 2.68 9 2 9 C0.14223235 5.86501708 -0.20140476 3.62528568 0 0 Z " transform="translate(320,76)" style="fill: #939967;"/><path d="M0 0 C1.9375 0.75 1.9375 0.75 4 2 C4.8125 4 4.8125 4 5 6 C4.67 6.66 4.34 7.32 4 8 C3.34 8 2.68 8 2 8 C2 6.68 2 5.36 2 4 C1.34 3.67 0.68 3.34 0 3 C0 2.01 0 1.02 0 0 Z " transform="translate(297,106)" style="fill: #52504C;"/><path d="M0 0 C-0.33 1.32 -0.66 2.64 -1 4 C-3.64 3.34 -6.28 2.68 -9 2 C-9 1.67 -9 1.34 -9 1 C-5.94152152 0.45627049 -3.11227195 0 0 0 Z " transform="translate(429,107)" style="fill: #8E9467;"/><path d="M0 0 C-0.66 0 -1.32 0 -2 0 C-2 0.66 -2 1.32 -2 2 C-4.64 2.33 -7.28 2.66 -10 3 C-10 2.34 -10 1.68 -10 1 C-3.71428571 -1.42857143 -3.71428571 -1.42857143 0 0 Z " transform="translate(712,105)" style="fill: #8C9064;"/><path d="M0 0 C0.66 0.33 1.32 0.66 2 1 C0.29374499 3.78388975 -0.47626739 4.85384206 -3.6875 5.75 C-4.8321875 5.87375 -4.8321875 5.87375 -6 6 C-6 4.68 -6 3.36 -6 2 C-4.02 2 -2.04 2 0 2 C0 1.34 0 0.68 0 0 Z " transform="translate(198,105)" style="fill: #3D3B3D;"/><path d="M0 0 C0.33 1.32 0.66 2.64 1 4 C0.34 4 -0.32 4 -1 4 C-1.28875 4.804375 -1.5775 5.60875 -1.875 6.4375 C-3 9 -3 9 -5 10 C-3.375 2.25 -3.375 2.25 0 0 Z " transform="translate(589,100)" style="fill: #A1AB6C;"/><path d="M0 0 C0.33 0 0.66 0 1 0 C1 1.65 1 3.3 1 5 C0.67 5 0.34 5 0 5 C0 3.35 0 1.7 0 0 Z M-2 3 C-0.11608215 6.26545761 0.49287967 9.28111761 1 13 C-1 12 -1 12 -2.1875 9.6875 C-3.03624754 6.88010429 -2.99928333 5.698065 -2 3 Z " transform="translate(237,92)" style="fill: #3C3C3A;"/><path d="M0 0 C1 3 1 3 1.4375 5.625 C1.7159375 6.800625 1.7159375 6.800625 2 8 C2.66 8.33 3.32 8.66 4 9 C2.35 8.67 0.7 8.34 -1 8 C-1.625 5.6875 -1.625 5.6875 -2 3 C-1.34 2.01 -0.68 1.02 0 0 Z " transform="translate(338,52)" style="fill: #A3A37E;"/><path d="M0 0 C0 1.32 0 2.64 0 4 C-3 6 -3 6 -6 6 C-3.2 0 -3.2 0 0 0 Z " transform="translate(358,41)" style="fill: #9DA473;"/><path d="M0 0 C0 2.64 0 5.28 0 8 C-0.33 6.68 -0.66 5.36 -1 4 C-2.98 4.66 -4.96 5.32 -7 6 C-1 0 -1 0 0 0 Z " transform="translate(135,115)" style="fill: #585657;"/><path d="M0 0 C1.41655793 -0.0272415 2.83327045 -0.04650467 4.25 -0.0625 C5.43335938 -0.07990234 5.43335938 -0.07990234 6.640625 -0.09765625 C8.90691002 -0.00385306 10.8288895 0.36758937 13 1 C13 1.66 13 2.32 13 3 C8.62065881 2.48041715 4.31196609 1.94324258 0 1 C0 0.67 0 0.34 0 0 Z " transform="translate(694,50)" style="fill: #8F9662;"/><path d="M0 0 C0.33 0 0.66 0 1 0 C1.06058594 0.62648437 1.12117188 1.25296875 1.18359375 1.8984375 C1.26738281 2.71570312 1.35117187 3.53296875 1.4375 4.375 C1.55931641 5.59316406 1.55931641 5.59316406 1.68359375 6.8359375 C1.89090114 9.04272805 1.89090114 9.04272805 3 11 C2.01 12.485 2.01 12.485 1 14 C0.34 13.67 -0.32 13.34 -1 13 C-0.67 8.71 -0.34 4.42 0 0 Z " transform="translate(468,38)" style="fill: #979D74;"/><path d="M0 0 C0 0.66 0 1.32 0 2 C-2.90600261 3.25664978 -4.79604584 4 -8 4 C-8 3.01 -8 2.02 -8 1 C-5.23735711 0.40267181 -2.83967231 0 0 0 Z " transform="translate(440,120)" style="fill: #909567;"/><path d="M0 0 C0.94875 0.350625 1.8975 0.70125 2.875 1.0625 C2.875 1.7225 2.875 2.3825 2.875 3.0625 C0.235 2.7325 -2.405 2.4025 -5.125 2.0625 C-5.125 1.4025 -5.125 0.7425 -5.125 0.0625 C-3.125 -0.9375 -3.125 -0.9375 0 0 Z " transform="translate(425.125,93.9375)" style="fill: #929168;"/><path d="M0 0 C0.66 0.33 1.32 0.66 2 1 C0.68 4.3 -0.64 7.6 -2 11 C-3.28485596 5.86057616 -2.22194431 4.62164416 0 0 Z " transform="translate(356,82)" style="fill: #909268;"/><path d="M0 0 C2.475 0.99 2.475 0.99 5 2 C4.67 3.32 4.34 4.64 4 6 C3.34 6 2.68 6 2 6 C1.67 5.01 1.34 4.02 1 3 C0.01 3 -0.98 3 -2 3 C-1.34 2.01 -0.68 1.02 0 0 Z " transform="translate(299,66)" style="fill: #3B3738;"/><path d="M0 0 C1.2065625 0.0309375 1.2065625 0.0309375 2.4375 0.0625 C2.0625 2.5 2.0625 2.5 1.4375 5.0625 C0.4475 5.5575 0.4475 5.5575 -0.5625 6.0625 C-0.8925 5.0725 -1.2225 4.0825 -1.5625 3.0625 C-2.2225 2.4025 -2.8825 1.7425 -3.5625 1.0625 C-2.5625 0.0625 -2.5625 0.0625 0 0 Z " transform="translate(131.5625,64.9375)" style="fill: #49484B;"/><path d="M0 0 C1.32 0 2.64 0 4 0 C4 0.99 4 1.98 4 3 C3.01 3 2.02 3 1 3 C0.67 3.99 0.34 4.98 0 6 C-1.125 2.25 -1.125 2.25 0 0 Z " transform="translate(369,53)" style="fill: #A1A96E;"/><path d="M0 0 C0.53625 0.226875 1.0725 0.45375 1.625 0.6875 C-3.79038462 3.76442308 -3.79038462 3.76442308 -6.75 3.375 C-7.554375 3.0346875 -7.554375 3.0346875 -8.375 2.6875 C-2.95961538 -0.38942308 -2.95961538 -0.38942308 0 0 Z " transform="translate(344.375,145.3125)" style="fill: #9C9E73;"/><path d="M0 0 C0.33 0.99 0.66 1.98 1 3 C-2.75 6 -2.75 6 -5 6 C-2.69230769 0 -2.69230769 0 0 0 Z " transform="translate(195,76)" style="fill: #3D3A3A;"/><path d="M0 0 C1.65 0 3.3 0 5 0 C5 0.99 5 1.98 5 3 C3.02 3 1.04 3 -1 3 C-0.67 2.01 -0.34 1.02 0 0 Z " transform="translate(648,67)" style="fill: #8F955D;"/><path d="M0 0 C0 0.99 0 1.98 0 3 C-1.175625 3.433125 -1.175625 3.433125 -2.375 3.875 C-5.09671632 4.84912254 -5.09671632 4.84912254 -7 7 C-6.875 5.1875 -6.875 5.1875 -6 3 C-2.9375 1.25 -2.9375 1.25 0 0 Z " transform="translate(98,53)" style="fill: #545150;"/><path d="M0 0 C-0.99 0.33 -1.98 0.66 -3 1 C-3.33 1.66 -3.66 2.32 -4 3 C-6.97 2.505 -6.97 2.505 -10 2 C-3.75 -1.125 -3.75 -1.125 0 0 Z " transform="translate(707,81)" style="fill: #B1B250;"/><path d="M0 0 C3.465 1.485 3.465 1.485 7 3 C5.1875 4.0625 5.1875 4.0625 3 5 C2.01 4.67 1.02 4.34 0 4 C-0.33 3.01 -0.66 2.02 -1 1 C-0.67 0.67 -0.34 0.34 0 0 Z " transform="translate(687,64)" style="fill: #A8AC60;"/><path d="M0 0 C2.97 0 5.94 0 9 0 C7.68 0.33 6.36 0.66 5 1 C5 1.66 5 2.32 5 3 C3.68 3 2.36 3 1 3 C0.67 2.01 0.34 1.02 0 0 Z " transform="translate(352,58)" style="fill: #AFB14B;"/><path d="M0 0 C0.91007812 0.10183594 1.82015625 0.20367187 2.7578125 0.30859375 C3.45648438 0.39238281 4.15515625 0.47617187 4.875 0.5625 C4.875 0.8925 4.875 1.2225 4.875 1.5625 C-1.875 2.6875 -1.875 2.6875 -4.125 1.5625 C-4.455 2.2225 -4.785 2.8825 -5.125 3.5625 C-5.125 2.9025 -5.125 2.2425 -5.125 1.5625 C-5.785 1.2325 -6.445 0.9025 -7.125 0.5625 C-4.50184968 -0.74907516 -2.89466564 -0.33399988 0 0 Z " transform="translate(495.125,51.4375)" style="fill: #9DA074;"/><path d="" transform="translate(0,0)" style="fill: #FFFFFF;"/><path d="" transform="translate(0,0)" style="fill: #FFFFFF;"/><path d="" transform="translate(0,0)" style="fill: #FFFFFF;"/><path d="" transform="translate(0,0)" style="fill: #FFFFFF;"/><path d="" transform="translate(0,0)" style="fill: #FFFFFF;"/><path d="" transform="translate(0,0)" style="fill: #FFFFFF;"/><path d="" transform="translate(0,0)" style="fill: #FFFFFF;"/><path d="" transform="translate(0,0)" style="fill: #FFFFFF;"/><path d="" transform="translate(0,0)" style="fill: #FFFFFF;"/><path d="" transform="translate(0,0)" style="fill: #FFFFFF;"/><path d="" transform="translate(0,0)" style="fill: #FFFFFF;"/><path d="" transform="translate(0,0)" style="fill: #FFFFFF;"/><path d="" transform="translate(0,0)" style="fill: #FFFF00;"/><path d="" transform="translate(0,0)" style="fill: #FFFFFF;"/><path d="" transform="translate(0,0)" style="fill: #FFFFFF;"/><path d="" transform="translate(0,0)" style="fill: #FFFFFF;"/><path d="" transform="translate(0,0)" style="fill: #FFFFFF;"/><path d="" transform="translate(0,0)" style="fill: #FFFFFF;"/><path d="" transform="translate(0,0)" style="fill: #FFFFFF;"/><path d="" transform="translate(0,0)" style="fill: #FFFFFF;"/><path d="" transform="translate(0,0)" style="fill: #FFFFFF;"/><path d="" transform="translate(0,0)" style="fill: #FFFFFF;"/><path d="" transform="translate(0,0)" style="fill: #FFFFFF;"/><path d="" transform="translate(0,0)" style="fill: #FFFFFF;"/><path d="" transform="translate(0,0)" style="fill: #FFFFFF;"/><path d="" transform="translate(0,0)" style="fill: #FFFFFF;"/><path d="" transform="translate(0,0)" style="fill: #FFFFFF;"/><path d="" transform="translate(0,0)" style="fill: #FFFFFF;"/><path d="" transform="translate(0,0)" style="fill: #FFFFFF;"/><path d="" transform="translate(0,0)" style="fill: #FFFFFF;"/><path d="" transform="translate(0,0)" style="fill: #FFFFFF;"/><path d="" transform="translate(0,0)" style="fill: #FFFFFF;"/><path d="" transform="translate(0,0)" style="fill: #FFFFFF;"/><path d="" transform="translate(0,0)" style="fill: #FFFFFF;"/><path d="" transform="translate(0,0)" style="fill: #FFFFFF;"/><path d="" transform="translate(0,0)" style="fill: #FFFFFF;"/><path d="" transform="translate(0,0)" style="fill: #FFFFFF;"/><path d="" transform="translate(0,0)" style="fill: #FFFFFF;"/><path d="" transform="translate(0,0)" style="fill: #FFFFFF;"/><path d="" transform="translate(0,0)" style="fill: #FFFFFF;"/><path d="" transform="translate(0,0)" style="fill: #FFFFFF;"/><path d="" transform="translate(0,0)" style="fill: #FFFFFF;"/><path d="" transform="translate(0,0)" style="fill: #FFFFFF;"/><path d="" transform="translate(0,0)" style="fill: #FFFFFF;"/><path d="" transform="translate(0,0)" style="fill: #FFFFFF;"/><path d="" transform="translate(0,0)" style="fill: #FFFFFF;"/><path d="" transform="translate(0,0)" style="fill: #FFFFFF;"/><path d="" transform="translate(0,0)" style="fill: #FFFFFF;"/><path d="" transform="translate(0,0)" style="fill: #FFFFFF;"/><path d="" transform="translate(0,0)" style="fill: #FFFFFF;"/><path d="" transform="translate(0,0)" style="fill: #FFFFFF;"/><path d="" transform="translate(0,0)" style="fill: #FFFFFF;"/><path d="" transform="translate(0,0)" style="fill: #FFFFFF;"/><path d="" transform="translate(0,0)" style="fill: #FFFFFF;"/><path d="" transform="translate(0,0)" style="fill: #FFFFFF;"/><path d="" transform="translate(0,0)" style="fill: #FFFFFF;"/><path d="" transform="translate(0,0)" style="fill: #FFFFFF;"/><path d="" transform="translate(0,0)" style="fill: #FFFFFF;"/><path d="" transform="translate(0,0)" style="fill: #FFFFFF;"/><path d="" transform="translate(0,0)" style="fill: #FFFFFF;"/><path d="" transform="translate(0,0)" style="fill: #FFFFFF;"/><path d="" transform="translate(0,0)" style="fill: #FFFFFF;"/><path d="" transform="translate(0,0)" style="fill: #FFFFFF;"/></svg>